<svg width="300" height="68.594" viewBox="0 0 414.832 68.594" xmlns="http://www.w3.org/2000/svg"><g id="svgGroup" stroke-linecap="round" fill-rule="evenodd" font-size="9pt" stroke="#007693" stroke-width="0.25mm" fill="#007693" style="stroke:#007693;stroke-width:0.25mm;fill:#007693"><path d="M 42.539 2.344 L 41.016 7.187 A 0.54 0.54 0 0 0 41.064 7.306 Q 41.152 7.461 41.328 7.461 A 1.931 1.931 0 0 1 41.781 7.203 Q 42.221 7.02 42.877 6.937 A 7.364 7.364 0 0 1 43.086 6.914 A 5.885 5.885 0 0 0 43.542 6.994 Q 43.821 7.031 44.063 7.031 A 3.67 3.67 0 0 1 44.838 6.731 Q 45.617 6.519 46.735 6.489 A 14.047 14.047 0 0 1 47.109 6.484 L 47.227 6.484 A 10.469 10.469 0 0 1 49.023 6.641 Q 49.492 6.484 50.391 6.484 L 50.391 6.758 L 50.273 7.031 L 50.664 7.305 L 50.938 7.305 Q 51.836 6.484 52.461 6.484 L 53.008 6.484 A 2.937 2.937 0 0 1 53.284 6.523 Q 53.828 6.628 53.828 6.914 A 3.034 3.034 0 0 0 53.78 7.034 Q 53.715 7.204 53.711 7.294 A 0.257 0.257 0 0 0 53.711 7.305 A 1.025 1.025 0 0 1 53.843 7.233 Q 54.084 7.12 54.589 6.974 A 15.458 15.458 0 0 1 54.805 6.914 Q 55 6.914 55.781 7.461 Q 55.898 7.461 56.172 7.305 A 7.732 7.732 0 0 1 58.788 7.809 Q 61.067 8.632 63.827 10.795 A 36.91 36.91 0 0 1 65.273 11.992 A 6.526 6.526 0 0 1 65.971 13.206 A 4.59 4.59 0 0 1 66.367 15.039 L 66.367 15.312 A 0.169 0.169 0 0 1 66.361 15.359 Q 66.346 15.411 66.293 15.425 A 0.173 0.173 0 0 1 66.25 15.43 L 66.367 15.703 A 3.394 3.394 0 0 1 65.932 17.253 Q 64.819 19.395 60.859 22.344 Q 57.5 25.078 49.57 28.125 A 10.832 10.832 0 0 1 48.447 28.574 Q 46.554 29.228 42.942 29.992 A 118.124 118.124 0 0 1 42.148 30.156 Q 41.836 30.43 34.414 31.562 L 32.344 31.562 A 20.094 20.094 0 0 0 31.607 31.773 Q 30.166 32.217 30.017 32.575 A 0.211 0.211 0 0 0 30 32.656 Q 28.854 35.184 28.261 36.228 A 8.237 8.237 0 0 1 28.086 36.523 A 23.988 23.988 0 0 0 28.943 37.8 Q 30.12 39.451 32.07 41.758 A 23.937 23.937 0 0 0 35.31 46.353 A 30.796 30.796 0 0 0 38.008 49.023 A 29.42 29.42 0 0 0 41.506 52.219 Q 43.595 53.822 45.745 54.761 A 16.776 16.776 0 0 0 46.953 55.234 A 45.817 45.817 0 0 0 48.01 55.659 Q 50.144 56.484 50.938 56.484 Q 51.569 56.883 56.73 57.396 A 200.047 200.047 0 0 0 58.672 57.578 Q 58.672 57.734 58.789 57.734 Q 59.297 57.422 59.883 57.422 L 60.469 57.578 A 2.373 2.373 0 0 0 60.655 57.504 Q 61.016 57.339 61.016 57.148 L 61.68 57.305 Q 62.281 57.037 62.368 56.913 A 0.069 0.069 0 0 0 62.383 56.875 L 62.656 57.031 L 66.25 55.937 Q 66.813 56.469 67.25 56.575 A 0.893 0.893 0 0 0 67.461 56.602 L 67.734 56.602 L 67.734 56.484 Q 67.638 56.259 67.621 56.113 A 0.507 0.507 0 0 1 67.617 56.055 A 2.037 2.037 0 0 1 67.934 55.888 Q 68.126 55.809 68.311 55.788 A 1.149 1.149 0 0 1 68.437 55.781 L 68.438 56.055 L 68.281 56.328 L 68.594 56.484 A 0.182 0.182 0 0 0 68.751 56.386 Q 68.867 56.2 68.867 55.664 L 68.984 55.664 A 3.253 3.253 0 0 1 69.205 55.683 Q 69.543 55.725 69.644 55.833 A 0.148 0.148 0 0 1 69.687 55.937 L 69.961 55.781 L 70.352 55.781 L 70.078 56.211 L 69.805 56.055 L 69.531 56.055 A 16.605 16.605 0 0 1 67.658 57.319 Q 66.647 57.898 65.699 58.206 A 6.68 6.68 0 0 1 63.633 58.555 A 4 4 0 0 1 62.825 58.904 Q 62.065 59.146 61.016 59.219 Q 61.016 59.407 60.615 59.632 A 2.682 2.682 0 0 1 60.586 59.648 A 1.3 1.3 0 0 1 60.492 59.643 Q 60.205 59.619 59.219 59.492 L 57.695 59.922 A 194.655 194.655 0 0 0 56.682 59.861 Q 55.309 59.782 54.632 59.769 A 12.735 12.735 0 0 0 54.375 59.766 A 89.087 89.087 0 0 1 54.144 59.802 Q 53.42 59.916 53.293 59.922 A 0.27 0.27 0 0 1 53.281 59.922 Q 51.038 59.294 49.253 59.055 A 17.508 17.508 0 0 0 48.203 58.945 Q 48.047 58.711 44.609 57.578 A 123.426 123.426 0 0 1 43.145 56.712 Q 40.947 55.388 40.009 54.666 A 5.071 5.071 0 0 1 39.531 54.258 Q 37.311 53.293 32.389 47.664 A 134.299 134.299 0 0 1 30.156 45.039 Q 27.685 40.818 26.692 40.305 A 0.548 0.548 0 0 0 26.445 40.234 A 18.981 18.981 0 0 0 25.587 41.777 Q 24.639 43.667 23.672 46.406 A 0.22 0.22 0 0 0 23.55 46.491 Q 23.256 46.801 22.453 48.249 A 67.033 67.033 0 0 0 22.031 49.023 A 174.682 174.682 0 0 1 20.807 51.323 Q 18.369 55.815 17.377 56.841 A 2.794 2.794 0 0 1 17.344 56.875 A 11.68 11.68 0 0 1 16.23 58.792 A 9.936 9.936 0 0 1 15.43 59.766 Q 15.127 60.462 14.309 61.58 A 27.983 27.983 0 0 1 13.789 62.266 A 3.61 3.61 0 0 1 13.45 62.864 Q 13.231 63.17 12.974 63.355 A 1.449 1.449 0 0 1 12.109 63.633 L 12.109 64.453 A 32.89 32.89 0 0 1 10.75 65.964 Q 8.221 68.594 6.758 68.594 L 6.602 68.32 L 6.602 68.164 A 0.497 0.497 0 0 0 6.808 68.106 Q 7.24 67.899 8.125 66.953 A 0.932 0.932 0 0 1 8.276 67.39 A 1.172 1.172 0 0 1 8.281 67.5 A 0.124 0.124 0 0 0 8.343 67.473 Q 8.484 67.377 8.834 66.938 A 14.76 14.76 0 0 0 8.945 66.797 A 3.034 3.034 0 0 0 8.826 66.748 Q 8.655 66.684 8.566 66.68 A 0.257 0.257 0 0 0 8.555 66.68 L 8.555 66.406 A 22.091 22.091 0 0 0 8.774 66.212 Q 9.341 65.703 9.46 65.51 A 0.172 0.172 0 0 0 9.492 65.43 L 9.492 65.156 L 9.375 64.883 Q 10.195 64.883 10.195 63.633 A 1.688 1.688 0 0 0 10.421 63.619 Q 10.859 63.56 10.859 63.242 L 10.859 63.086 L 10.742 62.812 A 0.523 0.523 0 0 0 11.11 62.645 Q 11.425 62.339 11.668 61.478 A 7.979 7.979 0 0 0 11.719 61.289 L 13.086 60.469 A 0.218 0.218 0 0 0 12.951 60.265 Q 12.845 60.211 12.655 60.199 A 1.841 1.841 0 0 0 12.539 60.195 L 12.539 59.922 A 0.135 0.135 0 0 1 12.568 59.857 Q 12.693 59.673 13.359 59.102 L 13.359 58.945 A 0.123 0.123 0 0 0 13.348 58.891 Q 13.323 58.839 13.241 58.83 A 0.342 0.342 0 0 0 13.203 58.828 A 12.258 12.258 0 0 1 13.542 58.273 Q 13.965 57.617 14.609 56.758 L 14.609 56.602 L 14.727 56.602 L 15.43 57.031 Q 15.43 56.875 15.547 56.875 A 0.247 0.247 0 0 0 15.516 56.77 Q 15.407 56.552 14.918 56.088 A 11.278 11.278 0 0 0 14.883 56.055 A 0.694 0.694 0 0 1 14.945 55.798 Q 15.157 55.285 16.094 54.258 A 5.906 5.906 0 0 1 16.316 53.616 Q 16.784 52.5 17.5 52.5 L 17.5 52.773 L 17.891 52.773 L 17.891 52.344 A 1.642 1.642 0 0 1 17.708 52.335 Q 17.525 52.314 17.434 52.247 A 0.208 0.208 0 0 1 17.344 52.07 L 17.344 51.797 A 1.842 1.842 0 0 1 17.611 50.935 Q 17.776 50.652 18.043 50.373 A 4.969 4.969 0 0 1 18.594 49.883 L 18.438 49.609 L 18.438 49.453 A 129.9 129.9 0 0 1 19.402 47.612 Q 20.853 44.902 21.682 43.745 A 5.132 5.132 0 0 1 22.187 43.125 L 21.875 42.695 L 21.875 42.578 A 6.599 6.599 0 0 0 21.98 42.457 Q 22.188 42.212 22.188 42.148 A 2.131 2.131 0 0 0 22.177 41.931 Q 22.131 41.484 21.875 41.484 Q 22.967 39.389 23.68 38.877 A 0.745 0.745 0 0 1 24.101 38.711 L 23.945 37.891 A 10.355 10.355 0 0 0 24.113 37.524 Q 24.343 36.989 24.371 36.712 A 0.714 0.714 0 0 0 24.375 36.641 A 17.042 17.042 0 0 0 22.83 34.778 Q 20.508 32.383 18.164 32.383 A 0.978 0.978 0 0 1 17.886 32.144 Q 17.536 31.726 17.227 30.742 A 3.16 3.16 0 0 1 17.3 30.543 Q 17.458 30.156 17.617 30.156 L 17.5 29.883 L 17.5 29.766 Q 18.357 29.766 18.542 29.502 A 0.281 0.281 0 0 0 18.594 29.336 Q 19.167 29.622 21.087 29.986 A 54.741 54.741 0 0 0 22.031 30.156 A 0.225 0.225 0 0 0 22.039 30.218 Q 22.059 30.287 22.13 30.306 A 0.23 0.23 0 0 0 22.188 30.312 L 22.305 30.312 Q 22.656 30.015 22.989 29.924 A 1.098 1.098 0 0 1 23.281 29.883 L 23.945 29.883 A 11.815 11.815 0 0 1 24.515 29.898 Q 25.108 29.927 25.905 30.01 A 41.537 41.537 0 0 1 26.172 30.039 Q 27.07 30.039 28.359 28.242 L 28.516 28.242 L 28.516 27.852 A 0.646 0.646 0 0 1 28.552 27.657 Q 28.671 27.289 29.18 26.602 Q 29.18 26.47 29.096 26.254 A 2.545 2.545 0 0 0 29.062 26.172 A 37.977 37.977 0 0 1 29.853 23.745 Q 30.891 20.913 32.07 19.453 A 2.18 2.18 0 0 1 32.104 19.119 Q 32.237 18.304 32.891 16.25 L 33.477 16.68 L 33.594 16.68 L 33.594 15.703 A 195.35 195.35 0 0 0 33.823 15.272 Q 34.495 13.999 34.563 13.816 A 0.102 0.102 0 0 0 34.57 13.789 A 2.052 2.052 0 0 1 34.502 13.66 Q 34.414 13.477 34.414 13.359 Q 35.108 12.424 35.476 12.211 A 0.39 0.39 0 0 1 35.664 12.148 A 6.821 6.821 0 0 0 35.623 11.891 Q 35.52 11.328 35.391 11.328 Q 33.047 11.328 21.602 15.977 L 11.445 21.094 A 0.18 0.18 0 0 1 11.376 21.179 Q 10.964 21.544 8.086 23.218 A 252.099 252.099 0 0 1 7.031 23.828 Q 7.031 24.171 5.733 24.773 A 13.633 13.633 0 0 1 5.664 24.805 Q 3.063 26.972 2.682 28.94 A 3.517 3.517 0 0 0 2.617 29.609 Q 1.797 29.961 1.797 30.039 Q 0.524 29.731 0.013 29.079 A 1.68 1.68 0 0 1 0 29.062 L 0.156 28.789 L 0.156 27.266 A 55.106 55.106 0 0 1 0.935 26.235 Q 2.391 24.355 2.97 24.045 A 0.431 0.431 0 0 1 3.164 23.984 A 0.195 0.195 0 0 0 3.254 23.94 Q 3.538 23.739 4.531 22.617 A 2.948 2.948 0 0 0 5.061 22.378 Q 6.239 21.728 8.828 19.57 L 9.102 19.727 L 9.375 19.727 Q 13.828 16.25 17.617 15.039 L 18.164 15.039 Q 18.527 14.24 20.714 13.61 A 16.88 16.88 0 0 1 21.055 13.516 Q 23.75 12.031 26.016 11.328 A 9.651 9.651 0 0 1 27.024 10.894 Q 28.75 10.249 31.926 9.562 A 80.777 80.777 0 0 1 32.07 9.531 Q 32.07 9.391 32.861 9.377 A 10.46 10.46 0 0 1 33.047 9.375 L 33.32 9.375 A 0.826 0.826 0 0 1 33.331 9.237 Q 33.374 8.984 33.594 8.984 L 34.57 9.102 A 0.888 0.888 0 0 1 34.802 8.828 Q 35.216 8.482 36.24 8.136 A 13.828 13.828 0 0 1 36.641 8.008 A 6.616 6.616 0 0 0 37.671 6.256 A 8.392 8.392 0 0 0 38.008 5.234 A 0.394 0.394 0 0 0 38.116 5.221 Q 38.237 5.186 38.27 5.062 A 0.403 0.403 0 0 0 38.281 4.961 A 1.056 1.056 0 0 0 38.238 4.655 A 0.9 0.9 0 0 0 38.125 4.414 L 38.984 0.977 A 3.428 3.428 0 0 1 39.645 0.405 A 2.542 2.542 0 0 1 40.742 0 A 4.807 4.807 0 0 1 41.549 0.5 Q 42.539 1.271 42.539 2.344 Z M 303.828 3.242 L 304.063 3.086 L 304.844 3.281 L 305.742 3.086 Q 306.387 3.909 306.44 4.339 A 0.604 0.604 0 0 1 306.445 4.414 A 2.016 2.016 0 0 1 306.326 4.988 Q 305.835 6.506 303.32 10.781 A 1.138 1.138 0 0 0 303.365 10.973 Q 303.398 11.069 303.447 11.136 A 0.354 0.354 0 0 0 303.75 11.289 L 306.289 11.289 A 2 2 0 0 1 306.669 11.191 Q 308.643 10.815 319.648 9.961 L 322.109 9.609 L 322.891 9.414 A 22.7 22.7 0 0 0 323.867 9.533 Q 324.639 9.609 325.273 9.609 Q 325.544 9.339 327.654 9.127 A 45.178 45.178 0 0 1 328.359 9.062 A 7.272 7.272 0 0 0 329.342 9.229 A 6.013 6.013 0 0 0 329.922 9.258 L 330.547 9.258 Q 330.938 9.258 331.172 9.102 L 331.445 9.258 Q 332.962 8.921 333.635 8.875 A 2.842 2.842 0 0 1 333.828 8.867 Q 334.634 8.867 335.577 9.211 A 7.489 7.489 0 0 1 335.703 9.258 A 2.747 2.747 0 0 1 336.27 8.984 A 2.102 2.102 0 0 1 336.953 8.867 L 338.828 8.867 Q 339.219 8.867 339.453 8.711 A 0.856 0.856 0 0 0 339.706 8.823 Q 339.819 8.853 339.952 8.863 A 1.768 1.768 0 0 0 340.078 8.867 L 341.172 8.867 Q 341.836 8.867 342.422 8.711 Q 343.008 8.867 343.672 8.867 A 13.573 13.573 0 0 0 343.402 8.899 Q 341.811 9.102 346.211 9.102 A 0.015 0.015 0 0 1 346.208 9.097 Q 346.193 9.064 346.494 9.063 A 5.88 5.88 0 0 1 346.523 9.062 A 2.761 2.761 0 0 1 346.815 8.885 Q 346.969 8.804 347.111 8.761 A 1.067 1.067 0 0 1 347.422 8.711 Q 349.44 8.85 349.939 8.865 A 3.413 3.413 0 0 0 350.039 8.867 L 350.039 8.75 L 351.172 9.062 L 356.328 8.711 L 357.266 8.867 L 359.219 8.516 L 359.375 8.906 L 361.328 8.711 L 363.359 8.711 Q 363.627 8.711 363.633 8.898 A 0.271 0.271 0 0 1 363.633 8.906 A 0.056 0.056 0 0 1 363.583 8.875 Q 363.557 8.833 363.555 8.733 A 0.896 0.896 0 0 1 363.555 8.711 L 365.234 8.516 A 31.63 31.63 0 0 0 365.876 8.601 Q 366.557 8.684 367.025 8.704 A 6.488 6.488 0 0 0 367.305 8.711 L 367.305 9.297 L 366.289 8.711 L 367.266 8.711 A 4.304 4.304 0 0 0 367.774 8.679 Q 368.021 8.649 368.295 8.593 A 8.263 8.263 0 0 0 368.633 8.516 L 368.945 8.711 L 371.328 8.32 L 372.07 8.711 A 0.702 0.702 0 0 0 372.261 8.682 Q 372.348 8.658 372.443 8.612 A 1.784 1.784 0 0 0 372.617 8.516 A 0.748 0.748 0 0 1 372.723 8.522 Q 372.848 8.541 372.898 8.606 A 0.17 0.17 0 0 1 372.93 8.711 Q 374.196 8.564 374.952 8.527 A 9.272 9.272 0 0 1 375.391 8.516 L 378.516 8.516 L 379.453 8.32 A 1.058 1.058 0 0 1 379.598 8.397 Q 379.805 8.531 379.805 8.711 A 1.602 1.602 0 0 0 380.051 8.689 Q 380.46 8.624 381.141 8.371 A 13.142 13.142 0 0 0 381.172 8.359 L 381.953 8.711 A 0.454 0.454 0 0 1 382.053 8.663 Q 382.311 8.58 382.569 8.895 A 1.339 1.339 0 0 1 382.578 8.906 L 382.617 8.906 L 382.617 9.414 L 383.164 9.414 Q 383.299 8.468 383.463 8.34 A 0.084 0.084 0 0 1 383.516 8.32 L 387.188 8.32 L 387.813 9.414 L 388.594 9.414 A 18.995 18.995 0 0 0 388.66 9.155 Q 388.757 8.763 388.781 8.577 A 0.817 0.817 0 0 0 388.789 8.477 A 0.052 0.052 0 0 1 388.834 8.505 Q 388.862 8.549 388.866 8.664 A 1.196 1.196 0 0 1 388.867 8.711 L 388.516 8.32 A 1.801 1.801 0 0 1 389.11 8.433 Q 389.788 8.671 390.664 9.414 A 0.53 0.53 0 0 0 390.869 9.377 Q 391.133 9.268 391.133 8.828 L 390.664 8.828 L 391.055 8.437 L 391.523 8.359 Q 391.575 8.913 391.78 9.221 A 0.853 0.853 0 0 0 392.539 9.609 A 1.104 1.104 0 0 0 392.471 9.203 Q 392.216 8.557 391.016 8.711 L 393.594 8.711 L 393.359 9.609 L 393.828 9.609 A 1.34 1.34 0 0 0 394.484 9.432 Q 394.677 9.325 394.865 9.154 A 2.718 2.718 0 0 0 394.961 9.063 A 0.835 0.835 0 0 1 395.26 9.124 Q 395.519 9.224 395.831 9.484 A 4.312 4.312 0 0 1 396.016 9.648 L 396.484 9.375 L 396.289 8.906 L 396.289 8.789 Q 396.289 8.902 396.362 8.906 A 0.099 0.099 0 0 0 396.367 8.906 A 0.033 0.033 0 0 1 396.405 8.871 Q 396.561 8.863 397.37 9.393 A 25.546 25.546 0 0 1 397.695 9.609 L 398.32 9.609 A 0.679 0.679 0 0 1 398.549 9.106 Q 398.767 8.897 399.191 8.747 A 3.515 3.515 0 0 1 399.297 8.711 A 0.814 0.814 0 0 0 399.517 8.811 Q 399.622 8.843 399.75 8.857 A 1.974 1.974 0 0 0 399.961 8.867 Q 399.609 9.102 400.273 9.102 A 0.086 0.086 0 0 1 400.281 9.063 Q 400.336 8.953 400.78 9.232 A 4.815 4.815 0 0 1 400.82 9.258 A 0.343 0.343 0 0 0 400.879 9.251 Q 401.034 9.222 401.454 9.073 A 16.513 16.513 0 0 0 401.484 9.062 L 402.07 9.062 A 0.006 0.006 0 0 0 402.071 9.065 A 0.001 0.001 0 0 0 402.072 9.066 Q 402.088 9.066 402.266 8.711 L 402.969 8.711 A 0.188 0.188 0 0 1 402.982 8.757 Q 403.008 8.892 403.008 9.336 L 403.359 9.727 A 0.912 0.912 0 0 1 403.103 9.685 Q 402.772 9.587 402.305 9.258 L 402.305 9.023 L 402.617 9.219 Q 401.106 9.686 400.887 9.723 A 0.185 0.185 0 0 1 400.859 9.727 L 400.078 9.727 A 5.105 5.105 0 0 1 399.702 9.711 Q 399.28 9.68 398.714 9.584 A 17.264 17.264 0 0 1 398.633 9.57 L 398.008 9.922 A 14.007 14.007 0 0 0 397.351 9.811 Q 397.039 9.766 396.77 9.745 A 5.72 5.72 0 0 0 396.328 9.727 L 396.133 9.727 Q 395.039 10.391 395.039 10 Q 394.63 9.78 394.272 9.737 A 1.433 1.433 0 0 0 394.102 9.727 A 4.505 4.505 0 0 1 393.892 9.879 Q 393.581 10.091 393.402 10.114 A 0.328 0.328 0 0 1 393.359 10.117 L 392.461 9.883 L 392.461 10.273 L 391.445 10.273 L 391.445 9.922 L 391.133 9.922 Q 390.82 10.312 388.867 10.469 Q 388.867 10.306 388.38 10.279 A 3.89 3.89 0 0 0 388.164 10.273 L 387.891 10.273 A 23.796 23.796 0 0 1 387.183 10.444 Q 386.201 10.664 385.703 10.664 L 384.57 10.469 L 383.984 10.82 L 383.203 10.664 A 1.894 1.894 0 0 0 383.013 10.676 Q 382.545 10.726 381.378 10.972 A 63.814 63.814 0 0 0 381.172 11.016 Q 379.074 10.679 378.773 10.306 A 0.281 0.281 0 0 1 378.75 10.273 L 378.477 10.273 A 6.112 6.112 0 0 1 378.297 10.459 Q 378.025 10.729 377.867 10.797 A 0.241 0.241 0 0 1 377.773 10.82 A 2.344 2.344 0 0 0 377.413 10.613 Q 377.196 10.514 376.986 10.483 A 1.294 1.294 0 0 0 376.797 10.469 L 376.641 10.469 Q 376.328 10.469 374.453 11.367 L 374.18 11.211 L 370.703 11.211 A 5.407 5.407 0 0 0 370.174 11.239 Q 369.788 11.277 369.336 11.367 Q 369.066 11.213 368.683 11.211 A 1.942 1.942 0 0 0 368.672 11.211 Q 368.019 11.211 367.84 11.355 A 0.162 0.162 0 0 0 367.773 11.484 A 1.61 1.61 0 0 0 367.315 11.289 Q 367.11 11.235 366.868 11.219 A 3.28 3.28 0 0 0 366.641 11.211 L 365.703 11.211 A 0.527 0.527 0 0 0 365.612 11.223 Q 365.391 11.267 364.758 11.466 A 45.118 45.118 0 0 0 364.453 11.563 L 363.828 11.562 A 1.279 1.279 0 0 1 363.641 11.546 Q 363.312 11.496 362.687 11.297 A 19.292 19.292 0 0 1 362.422 11.211 L 360.234 11.758 A 0.249 0.249 0 0 1 360.169 11.747 Q 360.065 11.718 359.882 11.61 A 3.783 3.783 0 0 1 359.805 11.562 Q 356.501 11.804 353.881 11.88 A 77.992 77.992 0 0 1 351.641 11.914 L 351.016 11.914 A 4.387 4.387 0 0 0 350.543 11.942 Q 350.287 11.969 349.996 12.026 A 9.287 9.287 0 0 0 349.609 12.109 L 348.867 11.758 L 344.297 12.109 L 343.516 11.914 Q 342.93 12.148 342.93 12.266 L 341.484 12.109 L 339.297 12.109 Q 338.398 12.109 336.953 12.5 A 1.822 1.822 0 0 1 336.657 12.477 Q 336.499 12.451 336.372 12.395 A 0.892 0.892 0 0 1 336.211 12.305 L 330.859 12.656 L 329.922 12.461 Q 328.75 12.852 328.359 12.852 L 326.797 12.656 Q 316.68 13.242 300.898 14.961 Q 301.016 15 299.883 16.836 A 1.028 1.028 0 0 1 299.809 17.114 Q 299.453 18.098 297.383 22.109 A 931.149 931.149 0 0 0 296.687 24.158 Q 294.632 30.236 294.435 31.153 A 0.765 0.765 0 0 0 294.414 31.289 Q 294.414 31.452 294.523 31.724 A 3.259 3.259 0 0 0 294.57 31.836 A 15.724 15.724 0 0 0 294.102 35.664 L 294.102 37.305 Q 294.492 39.609 296.719 39.609 A 5.105 5.105 0 0 0 298.149 39.358 Q 300.878 38.538 306.172 35.039 A 35.619 35.619 0 0 0 308.309 33.62 A 27.859 27.859 0 0 0 309.766 32.5 A 32.035 32.035 0 0 0 311.236 30.788 Q 311.973 29.872 312.777 28.767 A 80.464 80.464 0 0 0 314.453 26.367 L 314.688 26.719 A 15.447 15.447 0 0 1 314.107 29.239 A 12.544 12.544 0 0 1 313.398 30.977 Q 308.398 37.031 306.328 37.93 A 8.458 8.458 0 0 1 305.557 38.63 Q 304.682 39.339 303.359 40.117 Q 299.375 42.852 296.563 42.852 Q 294.313 42.526 292.91 41.543 A 5.231 5.231 0 0 1 291.836 40.547 A 1.705 1.705 0 0 0 291.756 40.056 Q 291.62 39.608 291.256 39.046 A 7.83 7.83 0 0 0 291.055 38.75 L 291.211 38.437 L 291.211 38.047 A 2.038 2.038 0 0 0 291.032 37.227 A 2.877 2.877 0 0 0 290.742 36.719 L 290.742 36.406 L 291.055 35.859 L 291.055 34.766 Q 291.055 34.102 291.211 33.086 A 3.675 3.675 0 0 1 291.144 32.927 Q 291.055 32.697 291.055 32.578 Q 291.523 29.844 292.93 26.211 A 9.498 9.498 0 0 1 293.168 24.838 Q 293.497 23.548 294.18 22.734 A 14.234 14.234 0 0 1 294.518 21.339 Q 294.938 19.946 295.575 19.115 A 4.229 4.229 0 0 1 295.586 19.102 A 31.342 31.342 0 0 0 295.958 18.363 Q 296.68 16.875 296.68 16.367 A 0.702 0.702 0 0 1 296.489 16.339 Q 296.402 16.314 296.307 16.269 A 1.784 1.784 0 0 1 296.133 16.172 L 282.656 18.75 A 6.462 6.462 0 0 1 281.964 18.342 Q 281.179 17.805 280.898 17.187 L 281.055 16.25 L 281.445 15.391 A 511.445 511.445 0 0 1 287.21 14.161 Q 294.292 12.697 298.09 12.181 A 46.643 46.643 0 0 1 299.297 12.031 A 47.792 47.792 0 0 0 300.107 10.827 Q 301.283 9.015 301.58 8.096 A 1.75 1.75 0 0 0 301.68 7.578 A 4.753 4.753 0 0 0 301.97 7.125 Q 302.572 6.087 303.737 3.449 A 131.392 131.392 0 0 0 303.828 3.242 Z M 247.852 3.828 L 248.008 3.828 A 0.222 0.222 0 0 0 248.041 3.824 Q 248.197 3.796 248.955 3.585 A 89.959 89.959 0 0 0 249.062 3.555 A 1.712 1.712 0 0 1 250 3.828 L 250.586 3.711 Q 251.008 3.711 251.079 3.765 A 0.031 0.031 0 0 1 251.094 3.789 L 251.758 3.711 L 253.242 3.711 A 24.739 24.739 0 0 0 253.353 3.802 Q 253.701 4.089 253.747 4.101 A 0.014 0.014 0 0 0 253.75 4.102 L 254.102 3.945 A 2.475 2.475 0 0 1 254.162 3.973 Q 254.423 4.098 254.231 4.101 A 0.637 0.637 0 0 1 254.219 4.102 L 254.219 3.984 A 10.663 10.663 0 0 1 258.036 4.744 Q 259.59 5.339 261.238 6.399 A 28.168 28.168 0 0 1 264.219 8.633 A 18.962 18.962 0 0 1 266.309 11.636 Q 267.891 14.498 267.891 17.344 Q 267.734 19.766 267.734 20.195 L 267.891 20.469 A 28.504 28.504 0 0 1 265.352 29.219 Q 264.805 29.727 263.672 32.344 L 258.633 38.008 Q 253.959 41.794 250.583 43.478 A 21.662 21.662 0 0 1 250.508 43.516 L 250.273 43.398 L 248.867 44.648 A 9.057 9.057 0 0 1 247.165 45.643 Q 243.189 47.522 232.695 50 A 24.989 24.989 0 0 0 232.548 49.936 Q 232.061 49.727 231.992 49.727 Q 231.654 50.065 228.976 50.227 A 55.195 55.195 0 0 1 228.086 50.273 A 21.12 21.12 0 0 1 227.93 50.227 Q 227.445 50.08 227.423 50.042 A 0.007 0.007 0 0 1 227.422 50.039 L 226.328 50.156 L 224.648 50.156 Q 224.492 50.156 223.516 49.883 Q 223.477 49.883 223.127 50.038 A 19.511 19.511 0 0 0 223.125 50.039 L 222.227 49.609 L 220.898 49.609 Q 220.547 49.219 218.516 48.906 Q 218.438 48.906 218.32 51.523 Q 218.12 51.523 217.693 52.746 A 22.467 22.467 0 0 0 217.539 53.203 Q 217.327 53.203 217.211 54.194 A 10.981 10.981 0 0 0 217.188 54.414 Q 216.719 55.078 215.469 59.336 A 0.214 0.214 0 0 0 215.326 59.438 Q 215.062 59.772 214.599 61.197 A 38.653 38.653 0 0 0 214.375 61.914 L 213.086 64.414 Q 213.143 64.556 213.158 64.76 A 2.138 2.138 0 0 1 213.164 64.922 Q 211.992 67.773 211.289 67.773 A 2.273 2.273 0 0 1 210.742 67.513 Q 210.511 67.365 210.281 67.153 A 4.644 4.644 0 0 1 210.039 66.914 Q 210.039 66.523 210.703 65.547 L 210.547 65.273 A 30.88 30.88 0 0 0 210.657 65.098 Q 211.016 64.521 211.016 64.453 L 210.82 63.828 A 63.841 63.841 0 0 0 211.058 63.431 Q 211.83 62.134 211.836 61.956 A 0.081 0.081 0 0 0 211.836 61.953 A 3.961 3.961 0 0 1 211.735 61.382 A 3.329 3.329 0 0 1 211.719 61.055 A 0.626 0.626 0 0 0 212.01 60.988 Q 212.16 60.911 212.266 60.742 L 211.875 60.078 Q 212.455 60.078 212.946 58.527 A 11.536 11.536 0 0 0 213.086 58.047 L 212.93 57.187 A 4.535 4.535 0 0 1 213.153 57.058 Q 213.492 56.875 213.672 56.875 L 213.672 55.703 Q 214.239 55.174 214.623 53.257 A 17.519 17.519 0 0 0 214.648 53.125 A 1.291 1.291 0 0 0 214.774 53.119 Q 214.978 53.099 215.039 53.008 L 214.922 52.461 Q 215.258 51.305 215.38 51.074 A 0.427 0.427 0 0 1 215.391 51.055 A 0.545 0.545 0 0 1 215.353 50.951 Q 215.323 50.838 215.315 50.669 A 2.707 2.707 0 0 1 215.313 50.547 L 216.445 49.297 A 0.125 0.125 0 0 1 216.368 49.413 Q 216.308 49.444 216.199 49.451 A 1.052 1.052 0 0 1 216.133 49.453 L 216.289 48.398 Q 216.289 47.93 215.586 47.422 L 215.391 47.5 A 2.393 2.393 0 0 1 214.638 47.305 Q 213.502 46.838 211.662 45.263 A 34.327 34.327 0 0 1 211.094 44.766 L 211.133 44.727 A 0.056 0.056 0 0 1 211.148 44.728 Q 211.172 44.735 211.172 44.766 L 211.211 44.727 L 210.977 44.727 A 2.828 2.828 0 0 1 210.374 44.329 Q 209.855 43.891 209.336 43.125 L 209.336 42.773 Q 209.409 42.188 209.86 42.151 A 0.763 0.763 0 0 1 209.922 42.148 L 210.156 42.148 A 104.743 104.743 0 0 0 212.097 43.383 Q 215.753 45.647 216.834 45.774 A 1.028 1.028 0 0 0 216.953 45.781 L 217.539 44.766 L 217.539 44.57 A 0.143 0.143 0 0 1 217.516 44.652 Q 217.479 44.708 217.378 44.722 A 0.541 0.541 0 0 1 217.305 44.727 A 48.214 48.214 0 0 1 217.444 44.277 Q 217.898 42.845 218.04 42.776 A 0.037 0.037 0 0 1 218.047 42.773 L 218.047 42.812 L 219.844 37.031 Q 220.117 37.031 220.741 33.603 A 68.58 68.58 0 0 0 220.742 33.594 Q 221.406 32.617 223.086 26.953 A 11.644 11.644 0 0 0 223.35 26.259 Q 224.016 24.363 225.508 19.062 Q 225.82 18.906 226.914 15.352 A 0.056 0.056 0 0 1 226.964 15.383 Q 226.99 15.425 226.992 15.525 A 0.896 0.896 0 0 1 226.992 15.547 L 226.992 15.117 A 0.225 0.225 0 0 1 226.984 15.179 Q 226.965 15.248 226.894 15.267 A 0.23 0.23 0 0 1 226.836 15.273 Q 226.836 14.531 226.953 14.531 L 226.836 13.437 L 226.836 13.477 L 227.109 13.477 Q 224.269 14.972 220.947 17.565 A 69.775 69.775 0 0 0 218.867 19.258 A 71.196 71.196 0 0 0 216.068 21.902 Q 214.555 23.405 212.929 25.17 A 134.82 134.82 0 0 0 210.937 27.383 Q 210.273 27.383 209.023 30.43 Q 208.835 30.43 208.719 30.576 A 0.478 0.478 0 0 0 208.711 30.586 Q 208.834 31.08 208.86 31.281 A 0.708 0.708 0 0 1 208.867 31.367 A 1.416 1.416 0 0 1 208.794 31.843 Q 208.56 32.5 207.578 32.5 L 207.031 32.5 A 3.094 3.094 0 0 1 206.324 31.614 A 2.774 2.774 0 0 1 206.016 30.312 Q 207.887 26.147 209.129 24.99 A 1.649 1.649 0 0 1 209.805 24.57 A 2.458 2.458 0 0 1 210.148 23.76 Q 210.825 22.669 212.74 21.182 A 28.489 28.489 0 0 1 213.164 20.859 Q 215.38 18.14 218.922 15.421 A 52.293 52.293 0 0 1 220.117 14.531 Q 220.376 14.531 222.563 12.709 A 105.496 105.496 0 0 0 222.813 12.5 L 227.891 9.453 A 1.389 1.389 0 0 0 228.031 9.156 Q 228.352 8.279 228.828 5.391 A 3.177 3.177 0 0 1 229.502 4.919 A 2.413 2.413 0 0 1 230.508 4.648 A 0.69 0.69 0 0 1 230.847 4.754 Q 231.277 5.001 231.869 5.825 A 11.793 11.793 0 0 1 232.109 6.172 L 231.602 7.734 A 0.056 0.056 0 0 0 231.617 7.732 Q 231.641 7.726 231.641 7.695 Q 236.968 5.649 240.296 4.926 A 21.721 21.721 0 0 1 241.563 4.687 A 0.233 0.233 0 0 1 241.648 4.522 Q 241.823 4.354 242.358 4.199 A 7.336 7.336 0 0 1 242.734 4.102 L 243.438 4.258 L 243.984 4.258 A 4.798 4.798 0 0 0 245.688 3.961 A 4.455 4.455 0 0 0 246.563 3.516 Q 247.539 3.828 247.852 3.828 Z M 107.695 34.57 L 107.539 34.57 Q 108.388 33.994 109.26 32.948 A 14.754 14.754 0 0 0 109.766 32.305 A 0.147 0.147 0 0 0 109.833 32.268 Q 110.117 32.049 111.406 30.521 A 127.958 127.958 0 0 0 111.875 29.961 L 115.547 27.07 L 118.203 26.172 A 2.196 2.196 0 0 1 119.891 26.979 Q 120.547 27.716 120.995 29.125 A 11.618 11.618 0 0 1 121.094 29.453 L 121.094 29.609 Q 121.133 30.234 120.391 35.391 Q 120.703 36.953 120.898 36.953 L 121.289 36.953 Q 123.594 36.953 129.414 29.687 Q 129.717 29.112 130.466 28.231 A 22.74 22.74 0 0 1 130.938 27.695 L 131.055 27.07 L 131.953 27.07 L 131.836 27.969 A 0.89 0.89 0 0 1 132.034 28.005 Q 132.304 28.089 132.339 28.355 A 0.636 0.636 0 0 1 132.344 28.437 A 3.823 3.823 0 0 0 132.151 28.914 Q 131.878 29.717 131.626 31.222 A 35.376 35.376 0 0 0 131.602 31.367 L 128.75 35.234 L 125.938 37.695 Q 123.888 39.374 122.482 39.83 A 3.133 3.133 0 0 1 121.523 40 A 3.793 3.793 0 0 1 118.37 38.453 A 6.282 6.282 0 0 1 117.578 37.07 L 117.461 35.039 A 4.097 4.097 0 0 1 117.454 34.853 Q 117.431 33.494 118.086 29.492 Q 118.062 29.158 117.951 29.028 A 0.224 0.224 0 0 0 117.773 28.945 Q 115.256 29.898 110.189 35.8 A 109.037 109.037 0 0 0 108.633 37.656 A 30.366 30.366 0 0 1 107.267 40.093 Q 106.524 41.279 105.754 42.211 A 13.502 13.502 0 0 1 104.531 43.516 Q 103.112 43.418 102.567 42.922 A 1 1 0 0 1 102.227 42.188 A 6.755 6.755 0 0 1 102.252 41.985 Q 102.31 41.576 102.387 41.501 A 0.051 0.051 0 0 1 102.422 41.484 A 0.699 0.699 0 0 1 102.426 41.523 Q 102.445 41.733 102.302 41.755 A 0.235 0.235 0 0 1 102.266 41.758 Q 102.852 39.219 103.203 39.219 L 103.164 38.555 A 0.982 0.982 0 0 1 103.199 38.36 Q 103.442 37.373 105.391 32.109 L 105.391 32.187 L 105.117 32.187 A 74.177 74.177 0 0 0 106.213 29.876 Q 107.092 27.933 107.617 26.406 Q 108.084 24.771 111.772 15.84 A 1190.304 1190.304 0 0 1 113.125 12.578 A 27.842 27.842 0 0 1 113.618 11.3 Q 114.714 8.672 115.547 8.672 A 4.551 4.551 0 0 1 116.161 8.969 Q 116.483 9.159 116.728 9.387 A 2.701 2.701 0 0 1 116.797 9.453 A 11.276 11.276 0 0 0 116.535 10.091 Q 115.813 11.968 113.75 18.125 Q 112.344 20.469 111.875 23.242 Q 108.621 31.068 107.71 34.514 A 21.746 21.746 0 0 0 107.695 34.57 Z M 173.242 34.57 L 173.086 34.57 Q 173.935 33.994 174.807 32.948 A 14.754 14.754 0 0 0 175.313 32.305 A 0.147 0.147 0 0 0 175.38 32.268 Q 175.664 32.049 176.953 30.521 A 127.958 127.958 0 0 0 177.422 29.961 L 181.094 27.07 L 183.75 26.172 A 2.196 2.196 0 0 1 185.438 26.979 Q 186.094 27.716 186.542 29.125 A 11.618 11.618 0 0 1 186.641 29.453 L 186.641 29.609 Q 186.68 30.234 185.938 35.391 Q 186.25 36.953 186.445 36.953 L 186.836 36.953 Q 189.141 36.953 194.961 29.687 Q 195.264 29.112 196.013 28.231 A 22.74 22.74 0 0 1 196.484 27.695 L 196.602 27.07 L 197.5 27.07 L 197.383 27.969 A 0.89 0.89 0 0 1 197.581 28.005 Q 197.851 28.089 197.885 28.355 A 0.636 0.636 0 0 1 197.891 28.437 A 3.823 3.823 0 0 0 197.698 28.914 Q 197.425 29.717 197.173 31.222 A 35.376 35.376 0 0 0 197.148 31.367 L 194.297 35.234 L 191.484 37.695 Q 189.435 39.374 188.029 39.83 A 3.133 3.133 0 0 1 187.07 40 A 3.793 3.793 0 0 1 183.917 38.453 A 6.282 6.282 0 0 1 183.125 37.07 L 183.008 35.039 A 4.097 4.097 0 0 1 183.001 34.853 Q 182.978 33.494 183.633 29.492 Q 183.609 29.158 183.498 29.028 A 0.224 0.224 0 0 0 183.32 28.945 Q 180.803 29.898 175.736 35.8 A 109.037 109.037 0 0 0 174.18 37.656 A 30.366 30.366 0 0 1 172.814 40.093 Q 172.071 41.279 171.301 42.211 A 13.502 13.502 0 0 1 170.078 43.516 Q 168.659 43.418 168.114 42.922 A 1 1 0 0 1 167.773 42.188 A 6.755 6.755 0 0 1 167.799 41.985 Q 167.857 41.576 167.934 41.501 A 0.051 0.051 0 0 1 167.969 41.484 A 0.699 0.699 0 0 1 167.973 41.523 Q 167.991 41.733 167.849 41.755 A 0.235 0.235 0 0 1 167.812 41.758 Q 168.398 39.219 168.75 39.219 L 168.711 38.555 A 0.982 0.982 0 0 1 168.746 38.36 Q 168.989 37.373 170.938 32.109 L 170.938 32.187 L 170.664 32.187 A 74.177 74.177 0 0 0 171.76 29.876 Q 172.639 27.933 173.164 26.406 Q 173.631 24.771 177.319 15.84 A 1190.304 1190.304 0 0 1 178.672 12.578 A 27.842 27.842 0 0 1 179.165 11.3 Q 180.261 8.672 181.094 8.672 A 4.551 4.551 0 0 1 181.707 8.969 Q 182.03 9.159 182.275 9.387 A 2.701 2.701 0 0 1 182.344 9.453 A 11.276 11.276 0 0 0 182.082 10.091 Q 181.36 11.968 179.297 18.125 Q 177.891 20.469 177.422 23.242 Q 174.167 31.068 173.257 34.514 A 21.746 21.746 0 0 0 173.242 34.57 Z M 220.195 45.273 L 219.766 46.875 A 7.448 7.448 0 0 0 221.028 47.241 Q 223.152 47.687 227.198 47.73 A 83.411 83.411 0 0 0 228.086 47.734 A 36.443 36.443 0 0 1 228.647 47.666 Q 229.415 47.579 229.796 47.578 A 3.377 3.377 0 0 1 229.805 47.578 A 0.872 0.872 0 0 1 229.809 47.618 Q 229.832 47.848 229.692 47.852 A 0.174 0.174 0 0 1 229.687 47.852 Q 230.156 47.461 230.508 47.461 A 0.684 0.684 0 0 1 230.571 47.465 Q 230.717 47.48 231.107 47.546 A 36.989 36.989 0 0 1 231.289 47.578 Q 231.857 47.309 233.041 47.04 A 26.909 26.909 0 0 1 233.828 46.875 Q 234.574 47.024 234.537 47.031 A 0.032 0.032 0 0 1 234.531 47.031 A 1.811 1.811 0 0 1 234.921 46.816 Q 235.885 46.392 238.794 45.657 A 126.559 126.559 0 0 1 240.195 45.313 Q 240.195 45.273 240.859 44.727 L 241.25 44.961 L 241.211 44.961 A 2.446 2.446 0 0 1 241.459 44.807 Q 241.885 44.572 242.769 44.207 A 40.459 40.459 0 0 1 243.32 43.984 L 243.711 43.984 L 243.906 44.062 A 18.241 18.241 0 0 1 245.672 42.799 Q 246.558 42.236 247.621 41.673 A 42.303 42.303 0 0 1 249.922 40.547 Q 252.344 39.258 257.344 34.727 Q 260.918 30.799 262.342 27.959 A 11.552 11.552 0 0 0 262.852 26.797 Q 264.312 23.13 264.559 20.056 A 15.32 15.32 0 0 0 264.609 18.828 A 0.978 0.978 0 0 1 264.654 18.829 Q 264.755 18.834 264.765 18.861 A 0.018 0.018 0 0 1 264.766 18.867 A 15.258 15.258 0 0 0 264.168 14.449 Q 262.699 9.583 257.617 7.5 A 354.264 354.264 0 0 0 256.669 7.244 Q 253.834 6.481 253.353 6.413 A 0.556 0.556 0 0 0 253.281 6.406 A 0.225 0.225 0 0 1 253.343 6.414 Q 253.412 6.434 253.431 6.505 A 0.23 0.23 0 0 1 253.437 6.562 L 252.148 6.406 L 248.125 6.406 A 56.93 56.93 0 0 0 241.865 7.412 A 43.7 43.7 0 0 0 236.289 9.023 Q 230.117 10.937 230.117 12.617 A 2.371 2.371 0 0 1 230.088 12.935 Q 229.963 13.806 229.297 16.25 A 0.487 0.487 0 0 1 229.301 16.184 Q 229.319 16.055 229.414 16.055 A 10.444 10.444 0 0 1 229.234 17.899 Q 228.89 19.805 227.891 22.266 Q 227.891 23.047 221.641 41.602 A 23.513 23.513 0 0 1 221.258 42.919 Q 220.874 44.098 220.455 44.852 A 5.156 5.156 0 0 1 220.195 45.273 Z M 329.609 36.133 L 329.727 37.539 Q 329.883 39.414 331.914 39.414 L 332.539 39.414 A 9.081 9.081 0 0 0 335.574 38.861 Q 337.463 38.193 339.492 36.719 A 26.963 26.963 0 0 0 344.102 33.086 Q 344.375 32.422 347.695 29.727 L 349.219 27.539 A 3.456 3.456 0 0 1 349.444 27.627 Q 349.883 27.817 349.883 28.008 Q 348.849 32.105 344.922 35.643 A 24.481 24.481 0 0 1 344.453 36.055 A 32.123 32.123 0 0 1 341.148 38.895 Q 336.85 42.07 333.047 42.07 L 332.266 42.07 A 5.384 5.384 0 0 1 329.265 41.236 Q 328.248 40.576 327.503 39.392 A 9.175 9.175 0 0 1 326.797 38.008 L 326.641 36.133 A 27.663 27.663 0 0 1 326.865 34.098 Q 327.163 32.12 327.72 30.883 A 5.617 5.617 0 0 1 328.086 30.195 A 12.554 12.554 0 0 1 328.047 29.607 Q 327.998 28.441 328.207 27.621 A 3.967 3.967 0 0 1 328.281 27.363 Q 328.444 26.866 328.682 26.599 A 0.849 0.849 0 0 1 329.336 26.289 A 0.43 0.43 0 0 1 329.335 26.258 Q 329.335 25.689 330.703 23.789 A 2.932 2.932 0 0 1 330.932 22.815 Q 331.523 21.301 333.639 18.697 A 53.6 53.6 0 0 1 334.609 17.539 A 62.349 62.349 0 0 1 336.717 14.99 Q 340.114 11.115 342.311 10.273 A 3.168 3.168 0 0 1 343.438 10.039 A 4.528 4.528 0 0 1 344.411 10.135 Q 345.807 10.443 346.052 11.75 A 2.985 2.985 0 0 1 346.094 12.07 Q 345.234 17.656 343.242 19.883 A 19.837 19.837 0 0 1 340.411 23.168 Q 338.511 24.962 335.938 26.602 Q 330.858 28.679 330.858 29.544 A 0.286 0.286 0 0 0 330.859 29.57 A 4.302 4.302 0 0 0 330.521 30.386 Q 330.064 31.823 329.737 34.844 A 71.795 71.795 0 0 0 329.609 36.133 Z M 94.141 34.258 L 94.453 34.414 A 9.611 9.611 0 0 1 94.971 34.023 Q 95.879 33.379 97.578 32.383 A 27.296 27.296 0 0 1 100.913 30.546 Q 103.804 29.224 106.406 29.023 A 14.271 14.271 0 0 1 107.31 28.477 Q 108.191 27.99 108.841 27.84 A 2.389 2.389 0 0 1 109.375 27.773 L 109.531 28.086 L 109.531 28.555 A 0.943 0.943 0 0 0 109.171 28.652 Q 108.348 29.016 106.406 30.742 A 1282.469 1282.469 0 0 0 104.6 31.748 Q 101.553 33.447 96.484 36.289 L 95.859 37.07 Q 97.109 39.18 97.109 41.758 A 8.537 8.537 0 0 1 94.587 45.778 A 11.981 11.981 0 0 1 92.891 47.07 A 11.948 11.948 0 0 1 87.016 49.693 A 14.225 14.225 0 0 1 86.797 49.727 Q 84.077 49.324 83.11 48.271 A 1.943 1.943 0 0 1 82.578 46.914 L 82.578 46.133 A 1.976 1.976 0 0 1 82.785 45.305 Q 83.269 44.263 84.888 42.88 A 19.148 19.148 0 0 1 84.922 42.852 A 14.74 14.74 0 0 1 86.006 41.641 Q 87.925 39.693 91.778 36.736 A 126.954 126.954 0 0 1 91.953 36.602 L 92.109 36.289 L 92.109 35.977 Q 89.167 31.747 88.533 28.864 A 6.919 6.919 0 0 1 88.359 27.383 Q 88.672 23.789 90.703 23.789 A 20.419 20.419 0 0 1 92.92 23.155 A 15.882 15.882 0 0 1 94.766 22.852 A 5.531 5.531 0 0 1 95.896 23.188 Q 97.578 23.912 97.578 25.664 Q 96.797 29.414 95.547 29.414 A 0.468 0.468 0 0 0 95.45 29.426 Q 95.351 29.447 95.215 29.506 A 2.811 2.811 0 0 0 95.078 29.57 Q 94.258 29.57 93.828 28.633 A 18.357 18.357 0 0 0 94.13 27.64 Q 94.399 26.649 94.444 25.938 A 4.348 4.348 0 0 0 94.453 25.664 A 0.45 0.45 0 0 0 94.438 25.54 Q 94.398 25.402 94.256 25.365 A 0.46 0.46 0 0 0 94.141 25.352 A 9.325 9.325 0 0 0 93.185 25.531 Q 92.225 25.769 91.761 26.172 A 1.153 1.153 0 0 0 91.328 27.07 A 9.91 9.91 0 0 0 92.193 31.038 Q 92.78 32.39 93.763 33.753 A 18.632 18.632 0 0 0 94.141 34.258 Z M 79.922 27.07 L 80.391 27.07 A 0.223 0.223 0 0 1 80.518 27.119 Q 80.723 27.266 81.016 27.852 A 0.457 0.457 0 0 1 80.95 28.033 Q 80.666 28.572 79.141 30.352 Q 78.516 31.25 77.578 34.102 L 77.578 35.508 Q 77.578 35.703 78.359 36.289 A 3.012 3.012 0 0 0 79.592 35.945 Q 82.107 34.758 87.296 29.47 A 117.802 117.802 0 0 0 87.656 29.102 Q 88.906 27.383 90 26.914 L 90.156 26.914 Q 90.44 26.95 90.466 27.178 A 0.426 0.426 0 0 1 90.469 27.227 Q 89.297 30.859 84.141 36.445 A 13.57 13.57 0 0 1 82.3 37.846 Q 81.218 38.523 80.158 38.835 A 6.349 6.349 0 0 1 78.359 39.102 L 78.203 39.102 A 3.583 3.583 0 0 1 75.425 37.778 Q 74.915 37.199 74.492 36.367 A 11.028 11.028 0 0 1 73.984 35.195 Q 69.135 39.968 67.623 40.038 A 0.958 0.958 0 0 1 67.578 40.039 A 9.995 9.995 0 0 1 66.832 40.223 Q 66.479 40.295 66.166 40.327 A 4.619 4.619 0 0 1 65.703 40.352 A 2.81 2.81 0 0 1 63.202 38.992 Q 62.862 38.467 62.633 37.739 A 8.263 8.263 0 0 1 62.422 36.914 L 62.422 36.758 Q 62.422 32.946 65.259 28.871 A 25.589 25.589 0 0 1 66.641 27.07 A 1.051 1.051 0 0 0 66.823 27.051 Q 67.114 26.999 67.623 26.802 A 11.35 11.35 0 0 0 67.734 26.758 A 1.778 1.778 0 0 1 68.254 26.842 Q 68.699 26.978 69.226 27.334 A 6.132 6.132 0 0 1 69.297 27.383 A 1.04 1.04 0 0 1 69.202 27.715 Q 68.781 28.747 66.484 32.383 A 5.74 5.74 0 0 0 66.142 33.266 Q 65.743 34.568 65.547 36.758 Q 65.85 37.44 66.153 37.534 A 0.35 0.35 0 0 0 66.172 37.539 Q 67.734 37.539 72.422 33.633 Q 74.085 31.997 76.115 29.661 A 124.704 124.704 0 0 0 78.047 27.383 A 9.995 9.995 0 0 1 78.793 27.199 Q 79.146 27.126 79.459 27.095 A 4.619 4.619 0 0 1 79.922 27.07 Z M 167.656 9.844 L 167.969 9.844 Q 169.23 9.844 169.998 10.83 A 3.239 3.239 0 0 1 170.078 10.938 L 170.078 11.094 Q 168.867 15.234 167.5 17.344 A 1.029 1.029 0 0 1 167.501 17.395 Q 167.501 18.992 162.813 24.219 L 162.813 24.375 A 5.605 5.605 0 0 1 164.076 24.505 Q 166.119 24.979 166.211 27.187 A 4.451 4.451 0 0 1 166.216 27.394 Q 166.216 29.059 165.118 32.853 A 69.649 69.649 0 0 1 165.039 33.125 L 165.508 33.125 A 13.913 13.913 0 0 0 167.791 32.136 Q 170.698 30.589 174.57 27.266 L 174.883 27.266 Q 175.167 27.301 175.193 27.53 A 0.426 0.426 0 0 1 175.195 27.578 A 1.212 1.212 0 0 1 175.197 27.637 Q 175.197 29.008 172.22 32.111 A 47.595 47.595 0 0 1 171.055 33.281 Q 168.398 35.547 165.469 36.094 A 13.34 13.34 0 0 0 163.438 35.938 A 0.251 0.251 0 0 0 163.328 36.001 Q 162.85 36.381 160.561 39.03 A 264.731 264.731 0 0 0 159.727 40 Q 157.639 40.928 156.348 41.167 A 4.449 4.449 0 0 1 155.547 41.25 A 5.411 5.411 0 0 1 153.744 40.31 Q 152.177 39.032 152.07 36.562 L 152.031 35.781 L 153.477 29.531 Q 153.477 29.414 151.563 28.594 A 3.913 3.913 0 0 1 151.426 28.354 Q 151.25 28.018 151.25 27.812 A 0.118 0.118 0 0 1 151.248 27.793 Q 151.248 27.564 152.049 26.95 A 12.083 12.083 0 0 1 152.148 26.875 L 152.461 27.031 A 5.194 5.194 0 0 0 153.738 26.886 Q 155.271 26.497 155.855 25.066 A 3.931 3.931 0 0 0 155.937 24.844 Q 155.938 24.366 157.357 22.295 A 50.403 50.403 0 0 1 157.539 22.031 A 57.684 57.684 0 0 1 162.302 14.826 A 48.989 48.989 0 0 1 165.078 11.563 Q 167.41 9.919 167.647 9.846 A 0.098 0.098 0 0 1 167.656 9.844 Z M 141.914 34.922 L 141.914 35.391 Q 142.227 36.797 142.695 36.797 L 143.633 36.797 A 2.833 2.833 0 0 0 144.844 36.46 Q 146.61 35.596 149.483 32.522 A 61.783 61.783 0 0 0 150.977 30.859 A 0.415 0.415 0 0 1 151.07 30.638 Q 151.384 30.194 152.748 29.263 A 33.332 33.332 0 0 1 153.164 28.984 A 3.059 3.059 0 0 1 153.633 27.988 A 2.768 2.768 0 0 1 154.414 27.266 L 154.57 27.266 A 1.39 1.39 0 0 0 154.634 27.671 Q 154.687 27.844 154.783 28.028 A 2.853 2.853 0 0 0 154.883 28.203 A 17.277 17.277 0 0 1 152.109 33.281 A 39.767 39.767 0 0 1 149.913 35.93 Q 146.252 39.942 143.506 40.074 A 3.87 3.87 0 0 1 143.32 40.078 Q 140.135 40.078 138.533 36.459 A 10.956 10.956 0 0 1 138.477 36.328 L 138.477 36.016 L 138.008 36.016 A 42.214 42.214 0 0 1 135.472 38.02 Q 132.985 39.822 131.088 40.481 A 6.115 6.115 0 0 1 129.102 40.859 L 128.633 40.859 A 4.224 4.224 0 0 1 126.961 40.547 Q 125.859 40.077 125.229 38.898 A 6.044 6.044 0 0 1 124.727 37.578 L 124.727 37.266 A 6.752 6.752 0 0 1 125.627 34.017 Q 127.129 31.265 131.133 28.359 L 135.508 25.547 Q 135.508 25.042 137.901 24.804 A 26.002 26.002 0 0 1 138.32 24.766 Q 139.746 24.766 141.562 26.327 A 13.346 13.346 0 0 1 141.914 26.641 A 4.344 4.344 0 0 1 142.63 26.694 Q 143.901 26.908 143.944 27.971 A 1.869 1.869 0 0 1 143.945 28.047 A 0.225 0.225 0 0 1 144.007 28.055 Q 144.076 28.074 144.095 28.145 A 0.23 0.23 0 0 1 144.102 28.203 A 24.381 24.381 0 0 0 142.972 30.499 Q 141.914 32.993 141.914 34.922 Z M 280.977 34.922 L 280.977 35.391 Q 281.289 36.797 281.758 36.797 L 282.695 36.797 A 2.833 2.833 0 0 0 283.906 36.46 Q 285.673 35.596 288.545 32.522 A 61.783 61.783 0 0 0 290.039 30.859 A 0.415 0.415 0 0 1 290.133 30.638 Q 290.447 30.194 291.811 29.263 A 33.332 33.332 0 0 1 292.227 28.984 A 3.059 3.059 0 0 1 292.695 27.988 A 2.768 2.768 0 0 1 293.477 27.266 L 293.633 27.266 A 1.39 1.39 0 0 0 293.697 27.671 Q 293.75 27.844 293.845 28.028 A 2.853 2.853 0 0 0 293.945 28.203 A 17.277 17.277 0 0 1 291.172 33.281 A 39.767 39.767 0 0 1 288.976 35.93 Q 285.315 39.942 282.568 40.074 A 3.87 3.87 0 0 1 282.383 40.078 Q 279.198 40.078 277.596 36.459 A 10.956 10.956 0 0 1 277.539 36.328 L 277.539 36.016 L 277.07 36.016 A 42.214 42.214 0 0 1 274.534 38.02 Q 272.047 39.822 270.151 40.481 A 6.115 6.115 0 0 1 268.164 40.859 L 267.695 40.859 A 4.224 4.224 0 0 1 266.023 40.547 Q 264.921 40.077 264.292 38.898 A 6.044 6.044 0 0 1 263.789 37.578 L 263.789 37.266 A 6.752 6.752 0 0 1 264.69 34.017 Q 266.191 31.265 270.195 28.359 L 274.57 25.547 Q 274.57 25.042 276.963 24.804 A 26.002 26.002 0 0 1 277.383 24.766 Q 278.808 24.766 280.624 26.327 A 13.346 13.346 0 0 1 280.977 26.641 A 4.344 4.344 0 0 1 281.693 26.694 Q 282.963 26.908 283.006 27.971 A 1.869 1.869 0 0 1 283.008 28.047 A 0.225 0.225 0 0 1 283.07 28.055 Q 283.139 28.074 283.157 28.145 A 0.23 0.23 0 0 1 283.164 28.203 A 24.381 24.381 0 0 0 282.034 30.499 Q 280.977 32.993 280.977 34.922 Z M 31.523 28.672 L 31.523 28.789 A 0.229 0.229 0 0 0 31.654 29.007 Q 31.76 29.062 31.953 29.062 A 0.963 0.963 0 0 0 32.043 29.059 Q 32.193 29.045 32.22 28.978 A 0.085 0.085 0 0 0 32.227 28.945 L 33.203 29.062 A 10.765 10.765 0 0 0 34.973 28.91 A 13.35 13.35 0 0 0 36.094 28.672 A 0.488 0.488 0 0 0 36.121 28.782 Q 36.179 28.929 36.331 28.944 A 0.365 0.365 0 0 0 36.367 28.945 A 1.198 1.198 0 0 0 36.595 28.919 Q 36.959 28.847 37.595 28.576 A 13.445 13.445 0 0 0 37.734 28.516 L 38.438 28.672 Q 38.438 28.306 38.721 28.252 A 0.571 0.571 0 0 1 38.828 28.242 A 2.052 2.052 0 0 0 38.958 28.311 Q 39.141 28.398 39.258 28.398 A 1.437 1.437 0 0 0 39.364 28.022 A 1.286 1.286 0 0 0 39.375 27.852 L 40.898 27.852 A 4.121 4.121 0 0 0 41.084 27.753 Q 41.338 27.61 41.413 27.504 A 0.145 0.145 0 0 0 41.445 27.422 Q 41.844 27.621 42.18 27.675 A 1.524 1.524 0 0 0 42.422 27.695 A 0.264 0.264 0 0 1 42.535 27.513 Q 42.951 27.154 44.883 26.602 L 45.156 26.719 L 45.586 26.719 A 1.434 1.434 0 0 1 45.911 26.474 Q 46.499 26.129 47.865 25.743 A 29.641 29.641 0 0 1 48.75 25.508 L 51.367 24.258 L 52.188 24.375 Q 52.578 23.828 53.281 23.555 L 53.555 23.711 L 53.984 23.711 Q 53.984 22.773 56.328 22.187 Q 56.84 21.505 58.963 20.434 A 34.411 34.411 0 0 1 59.609 20.117 Q 59.609 19.57 62.227 17.227 Q 62.905 15.684 63.048 14.702 A 3.377 3.377 0 0 0 63.086 14.219 A 1.989 1.989 0 0 0 62.469 12.869 Q 61.247 11.556 57.607 10.335 A 41.526 41.526 0 0 0 55.898 9.805 Q 53.481 9.335 50.343 9.269 A 49.707 49.707 0 0 0 49.297 9.258 Q 49.165 9.258 48.949 9.342 A 2.545 2.545 0 0 0 48.867 9.375 L 48.594 9.258 Q 40.959 9.549 39.647 10.483 A 0.531 0.531 0 0 0 39.375 10.898 A 32.488 32.488 0 0 1 38.849 12.214 Q 37.532 15.365 33.478 24.351 A 2521.076 2521.076 0 0 1 31.523 28.672 Z M 313.594 34.883 L 313.594 35.43 A 1.481 1.481 0 0 0 314.513 36.845 Q 315.192 37.174 316.372 37.219 A 10.126 10.126 0 0 0 316.758 37.227 Q 318.906 37.031 321.035 36.27 A 5.547 5.547 0 0 0 322.206 35.656 Q 323.936 34.508 326.446 31.647 A 57.468 57.468 0 0 0 326.992 31.016 Q 327.665 29.529 329.171 28.139 A 13.771 13.771 0 0 1 329.492 27.852 L 330.078 27.852 A 1.794 1.794 0 0 0 330.12 28.249 A 1.257 1.257 0 0 0 330.352 28.75 L 330.352 29.102 A 23.535 23.535 0 0 1 327.452 34.074 A 14.85 14.85 0 0 1 318.359 39.805 A 5.129 5.129 0 0 0 317.443 39.891 A 6.795 6.795 0 0 0 316.68 40.078 A 7.337 7.337 0 0 1 313.935 39.593 Q 312.012 38.824 310.897 36.834 A 9.492 9.492 0 0 1 310.195 35.234 L 310 32.891 L 310.664 32.891 A 5.908 5.908 0 0 1 311.389 30.934 Q 312.334 29.26 314.426 27.37 A 30.402 30.402 0 0 1 315.742 26.25 A 19.952 19.952 0 0 1 317.156 25.361 Q 318.646 24.516 319.787 24.296 A 4.022 4.022 0 0 1 320.547 24.219 A 1.759 1.759 0 0 1 321.29 24.398 Q 321.849 24.658 322.463 25.294 A 7.781 7.781 0 0 1 322.695 25.547 A 7.263 7.263 0 0 1 322.495 27.292 A 5.504 5.504 0 0 1 321.641 29.18 A 34.02 34.02 0 0 1 319.921 31.046 Q 317.236 33.734 315.352 34.062 L 313.594 34.883 Z M 333.008 24.883 L 333.32 25.039 A 21.586 21.586 0 0 0 337.998 21.809 A 17.995 17.995 0 0 0 341.055 18.164 A 2.859 2.859 0 0 0 341.589 17.572 Q 342.496 16.298 343.633 13.008 L 343.594 12.227 Q 342.187 12.227 338.079 16.815 A 74.903 74.903 0 0 0 337.852 17.07 A 103.908 103.908 0 0 0 336.313 19.154 Q 334.072 22.275 333.337 23.919 A 4.492 4.492 0 0 0 333.008 24.883 Z M 128.164 36.797 L 128.164 37.891 Q 128.2 38.174 128.428 38.2 A 0.426 0.426 0 0 0 128.477 38.203 L 128.789 38.203 A 5.101 5.101 0 0 0 130.601 37.825 Q 133.029 36.894 136.443 33.674 A 272.814 272.814 0 0 0 136.445 33.672 A 24.684 24.684 0 0 0 137.602 32.406 Q 139.243 30.468 139.398 29.233 A 2.004 2.004 0 0 0 139.414 28.984 L 139.414 28.828 A 3.674 3.674 0 0 0 139.357 28.15 Q 139.144 27.021 138.133 26.957 A 1.972 1.972 0 0 0 138.008 26.953 Q 134.237 28.197 129.926 32.844 A 41.953 41.953 0 0 0 129.883 32.891 A 12.728 12.728 0 0 0 128.964 34.41 Q 128.541 35.243 128.326 36.034 A 6.589 6.589 0 0 0 128.164 36.797 Z M 267.227 36.797 L 267.227 37.891 Q 267.262 38.174 267.491 38.2 A 0.426 0.426 0 0 0 267.539 38.203 L 267.852 38.203 A 5.101 5.101 0 0 0 269.663 37.825 Q 272.091 36.894 275.506 33.674 A 272.814 272.814 0 0 0 275.508 33.672 A 24.684 24.684 0 0 0 276.665 32.406 Q 278.306 30.468 278.46 29.233 A 2.004 2.004 0 0 0 278.477 28.984 L 278.477 28.828 A 3.674 3.674 0 0 0 278.42 28.15 Q 278.207 27.021 277.195 26.957 A 1.972 1.972 0 0 0 277.07 26.953 Q 273.3 28.197 268.988 32.844 A 41.953 41.953 0 0 0 268.945 32.891 A 12.728 12.728 0 0 0 268.026 34.41 Q 267.604 35.243 267.388 36.034 A 6.589 6.589 0 0 0 267.227 36.797 Z M 85.703 46.602 L 85.703 46.758 Q 85.781 47.227 86.797 47.227 A 4.917 4.917 0 0 0 88.53 46.876 Q 90.066 46.295 91.936 44.752 A 26.423 26.423 0 0 0 93.203 43.633 Q 93.203 43.442 94.095 41.692 A 92.203 92.203 0 0 1 94.141 41.602 L 94.141 40.352 Q 94.141 39.99 93.872 39.091 A 18.286 18.286 0 0 0 93.828 38.945 L 93.203 38.945 A 119.464 119.464 0 0 0 90.75 40.989 Q 85.703 45.32 85.703 46.602 Z M 159.922 22.812 L 159.922 22.969 L 160.078 22.969 A 10.408 10.408 0 0 0 161.667 21.692 Q 163.161 20.259 164.848 17.83 A 49.091 49.091 0 0 0 165.898 16.25 A 12.56 12.56 0 0 1 166.182 15.614 Q 166.608 14.735 166.955 14.48 A 0.464 0.464 0 0 1 167.227 14.375 L 167.188 13.281 L 167.031 13.281 A 0.912 0.912 0 0 0 166.56 13.461 Q 165.649 14.055 163.877 16.617 A 51.064 51.064 0 0 0 163.594 17.031 A 11.047 11.047 0 0 0 162.714 18.1 Q 161.821 19.316 160.753 21.249 A 59.89 59.89 0 0 0 159.922 22.812 Z M 157.109 29.687 L 156.758 29.531 Q 155.032 33.13 155.032 36.176 A 10.574 10.574 0 0 0 155.039 36.562 Q 155.088 37.831 155.532 38.307 A 0.888 0.888 0 0 0 156.211 38.594 A 2.649 2.649 0 0 0 157.263 38.341 Q 158.764 37.684 160.938 35.312 L 160.898 35.156 A 14.098 14.098 0 0 1 159.199 33.749 Q 157.195 31.782 157.109 29.687 Z M 314.297 31.758 L 314.063 31.758 A 13.955 13.955 0 0 0 316.808 30.488 Q 318.529 29.435 319.57 27.959 A 8.147 8.147 0 0 0 320.234 26.836 L 320.234 26.68 A 0.391 0.391 0 0 1 320.229 26.654 Q 320.205 26.523 320.313 26.523 Q 317.883 27.023 315.226 30.472 A 27.062 27.062 0 0 0 314.297 31.758 Z M 160.391 29.844 L 160.391 30.156 A 2.554 2.554 0 0 0 161.076 31.754 Q 161.396 32.114 161.867 32.432 A 6.003 6.003 0 0 0 162.227 32.656 L 162.695 32.656 Q 164.378 30.188 164.378 28.006 A 5.611 5.611 0 0 0 164.375 27.812 L 164.18 27.187 A 0.957 0.957 0 0 0 164.304 26.733 Q 164.307 26.65 164.297 26.562 L 163.828 26.25 L 163.516 26.25 A 3.07 3.07 0 0 0 162.082 26.567 Q 160.849 27.207 160.489 29.142 A 8.18 8.18 0 0 0 160.391 29.844 Z M 386.914 8.789 L 387.773 8.789 L 387.773 9.609 L 387.344 10.586 A 3.504 3.504 0 0 0 386.901 10.364 Q 386.492 10.195 386.133 10.195 A 3.013 3.013 0 0 1 386.168 9.717 Q 386.298 8.912 386.914 8.789 Z M 401.914 8.437 L 403.242 8.437 L 403.242 9.805 L 401.914 9.805 L 401.914 8.437 Z M 329.727 27.344 L 330.898 27.109 L 331.289 27.891 L 330.664 28.203 L 329.727 28.203 L 329.727 27.344 Z M 406.289 9.336 L 406.68 9.375 A 0.046 0.046 0 0 1 406.718 9.401 Q 406.758 9.465 406.758 9.687 L 408.125 9.336 L 406.289 9.336 Z M 397.617 8.086 L 397.617 8.906 L 396.914 8.906 L 396.914 8.086 L 397.617 8.086 Z M 405.273 8.437 L 405.273 9.258 L 404.57 9.258 L 404.57 8.437 L 405.273 8.437 Z M 410.742 9.18 L 410.742 10 L 410.039 10 L 410.039 9.18 L 410.742 9.18 Z M 26.172 32.656 L 25.352 32.656 L 25.352 33.086 Q 25.352 33.24 25.595 33.394 A 1.681 1.681 0 0 0 25.742 33.477 A 0.514 0.514 0 0 0 26.092 33.153 Q 26.137 33.045 26.156 32.902 A 1.806 1.806 0 0 0 26.172 32.656 Z M 12.539 61.562 L 11.992 61.562 L 11.719 61.992 L 11.719 62.266 L 12.266 62.266 A 0.394 0.394 0 0 0 12.374 62.252 Q 12.495 62.217 12.527 62.093 A 0.403 0.403 0 0 0 12.539 61.992 L 12.539 61.562 Z M 405.898 8.633 L 405.898 9.375 Q 405.195 9.258 405.195 8.633 L 405.898 8.633 Z M 409.258 8.945 L 409.258 9.18 Q 409.335 9.18 408.952 9.563 A 11.093 11.093 0 0 1 408.945 9.57 L 408.867 9.57 A 0.945 0.945 0 0 1 408.804 9.479 Q 408.579 9.1 409.11 8.973 A 1.786 1.786 0 0 1 409.258 8.945 Z M 414.258 8.984 L 414.648 8.984 L 414.648 9.141 L 414.727 9.297 Q 415.046 9.084 414.399 9.064 A 4.681 4.681 0 0 0 414.258 9.063 L 414.258 8.984 Z" vector-effect="non-scaling-stroke"/></g></svg>