<?xml version="1.0" encoding="utf-8"?>
<!-- Generator: Adobe Illustrator 19.2.1, SVG Export Plug-In . SVG Version: 6.00 Build 0)  -->
<svg version="1.1" id="layer" xmlns="http://www.w3.org/2000/svg" xmlns:xlink="http://www.w3.org/1999/xlink" x="0px" y="0px"
	 viewBox="0 0 652 652" style="enable-background:new 0 0 652 652;" xml:space="preserve">
<style type="text/css">
	.st0{fill:#36BFEC;}
	.st1{fill:#005586;}
</style>
<path class="st0" d="M91.9,376.1h16.6v-31.8c-1.3,1.3-10.5,9.2-16.6,12.1C91.9,356.4,91.9,376.1,91.9,376.1z M147.2,292.9v28.9
	c-6-2.9-12.8-4.5-19.9-4.5c-6.7,0-13.2,1.6-19,4v-28.4H91.7v40.5c-0.9,0.7-1.6,1.1-1.6,1.1c-4.9,3.6-11.2,5.8-17.7,5.8
	c-16.8,0-30.2-13.7-30.2-30.2c0-16.6,13.9-30.4,30.7-30.4c6,0,11.4,1.8,16.1,4.7V266c-4.9-1.8-10.5-2.9-16.1-2.9
	c-25.7,0-46.8,21-46.8,46.8s20.8,46.8,46.8,46.8c6.3,0,11.4-1.1,17.7-3.6c0.4-0.2,0.9-0.4,1.6-0.7c5.8-2.9,15-11,16.6-12.1
	c0.2,0,0.2-0.2,0.2-0.2c5.1-4,11.6-6.5,18.8-6.5c7.6,0,14.5,2.9,19.9,7.4v34.9h16.6v-83H147.2z M56.8,313.2c0.2-0.7,0-1.3,0-2
	c0-1.6-0.2-2.9-0.4-4.5c-0.4-3.6-0.4-7.2,1.6-10.3c0.4-0.7,0.9-1.3,1.6-2c0,0,0,0,0.2,0c2.2-2.2,5.6-3.6,9.4-3.8
	c1.1,0,2.9,0,4.9,0.7c1.6,0.4,2.9,0.9,4.5,1.8c0.7,0.2,1.3,0.9,1.8,1.1c0.7,0.4,1.1,0.9,1.6,1.6c0.9,1.3,1.6,3.4,0.7,5.1l-0.2,0.4
	l-0.2,0.4v-0.9c0,0.2-0.4,0.9-0.7,0.9l0,0c0,0.4-0.2,0.7-0.2,0.9c-0.2,0.7-0.4,0.9-0.7,1.6v0.2c0.7,0,0.7-0.4,0.7-0.2
	c0,0.2-0.4,0.4-0.7,0.4c0,1.1,1.1,2.5,1.3,2.7c0.4,0.4,0.9,0.9,1.1,1.1c0.4,0.7-0.9,1.6-1.1,1.8c0.2,0.4,0.4,0.4,0.4,0.9
	c0.2,0.4-0.9,0.7-0.7,0.9c0.2,0.2,0.2,0.9,0,1.1c-0.9,0.7-0.7,0.9-0.4,2c0.2,1.3-0.4,1.8-1.6,2c-0.9,0.2-3.4-0.7-4.3-0.2l0,0
	c-1.8,1.3-3.4,4.3,1.6,11.2c0.4,0.4,1.8,2,0.9,2c-3.6,0-9.4-7.6-17.7-2.7c-1.1,0.7,3.6-6,4.5-9.6c-0.7,0-1.3-0.4-2.2-1.1
	c0,0.4,0.4,0.7,0.7,1.1c0,0-0.2,0-0.4,0c-0.2,0-0.2,0-0.4,0c-0.9,0-2-0.2-2.9-0.7c-0.4-0.2-0.7-0.9-0.9-1.3c0-0.2-0.2-0.9-0.2-1.3
	c0,0.2-0.2,0.7-0.7,0.9s-0.9,0.4-1.6,0.2C56.4,315,56.6,314.1,56.8,313.2z"/>
<path class="st1" d="M215.5,318.8c0.7-1.1,1.3-2,2.9-2c1.6,0,3.4,1.3,3.4,3.1c0,0.7,0,1.1-0.4,1.8c-2,4.9-7.4,7.8-13,7.8
	c-8.3,0-14.1-6-14.8-13.9c-0.2-2.7-0.2-5.4,0-7.8c0.7-7.8,6.5-14.1,14.8-14.1c5.6,0,10.7,2.9,13,7.8c0.2,0.9,0.4,1.3,0.4,1.8
	c0,1.8-1.8,3.1-3.4,3.1c-1.6,0-2.5-0.9-2.9-2c-1.3-2.7-4-4.3-6.9-4.3c-4.7,0-7.8,3.6-8.1,8.3c-0.2,2-0.2,4.3,0,6.3
	c0.4,4.9,3.4,8.3,8.1,8.3C211.7,323.3,214.1,321.5,215.5,318.8z M234.7,304.3c1.1-0.9,3.6-2,6.3-2c6.3,0,9.8,3.8,9.8,10.7v12.8
	c0,2-1.3,3.6-3.4,3.6c-1.8,0-3.4-1.6-3.4-3.6v-12.3c0-2.9-1.8-4.7-4.5-4.7c-2,0-4,0.9-5.1,2v15c0,1.8-1.3,3.4-3.4,3.4
	c-1.8,0-3.4-1.6-3.4-3.4v-28.6c0-2,1.3-3.4,3.4-3.4c1.8,0,3.4,1.6,3.4,3.4L234.7,304.3L234.7,304.3z M261.1,299.8
	c-2,0-3.6-1.6-3.6-3.6c0-2,1.6-3.6,3.6-3.6c2,0,3.6,1.6,3.6,3.6C264.7,298.2,263.2,299.8,261.1,299.8z M264.5,306.1V326
	c0,1.8-1.3,3.4-3.4,3.4c-1.8,0-3.4-1.6-3.4-3.4v-19.9c0-2,1.3-3.4,3.4-3.4C263.2,302.5,264.5,304.1,264.5,306.1z M278.4,297.3V326
	c0,1.8-1.3,3.4-3.4,3.4c-1.8,0-3.4-1.6-3.4-3.4v-28.6c0-2,1.3-3.4,3.4-3.4C277,293.8,278.4,295.3,278.4,297.3z M295.6,302.5
	c2,0,4.3,0.7,5.8,1.3v-6.5c0-2,1.6-3.4,3.4-3.4s3.4,1.6,3.4,3.4v26.9c0,1.1-0.2,1.8-1.1,2.2c-1.3,0.9-5.4,3.1-10.3,3.1
	c-6.9,0-11.2-4.3-11.6-10.3c-0.2-1.8-0.2-4.9,0-6.7C285.5,306.3,289.1,302.5,295.6,302.5z M296.7,323.3c1.8,0,4-0.9,4.7-1.6v-11.6
	c-0.9-0.4-2.9-1.3-5.1-1.3c-3.1,0-4.7,1.8-4.9,4.7c0,1.1,0,3.4,0,4.7C291.6,321.5,293.6,323.3,296.7,323.3z M331,306.3
	c0,1.3-1.1,3.1-3.1,3.1c-1.1,0-2.2-0.4-3.8-0.4s-2.5,0.9-2.5,3.1V326c0,1.8-1.3,3.4-3.4,3.4c-1.8,0-3.4-1.6-3.4-3.4v-15.2
	c0-5.1,2.9-8.5,8.7-8.5c1.6,0,3.4,0.2,4.3,0.4C329.8,303.4,331,304.5,331,306.3z M356.7,315c0,2-0.9,3.4-3.4,3.4h-13.2v0.4
	c0,3.1,2.5,4.7,5.6,4.7c1.8,0,3.6-0.4,5.4-1.1c2.7-0.9,4.3,0.9,4.3,2.7c0,0.9-0.4,2-1.6,2.7c-1.8,1.1-4.9,1.8-8.1,1.8
	c-6.7,0-11.4-4.3-11.9-10.5c-0.2-2,0-4.7,0-6.3c0.7-6.5,5.1-10.5,11.6-10.5c6.7,0,11.2,4.5,11.2,11.4
	C356.7,313.7,356.7,315,356.7,315z M349.8,313.7c0.4,0,0.4-0.2,0.4-0.7c0.2-2.9-1.8-4.9-4.9-4.9c-3.6,0-5.1,2.2-5.1,5.6H349.8z
	 M385.3,326c0,1.8-1.3,3.4-3.4,3.4c-1.8,0-3.4-1.6-3.4-3.4v-12.5c0-3.1-2.2-4.7-4.7-4.7c-2,0-3.8,0.7-4.9,1.1v15.9
	c0,1.8-1.3,3.4-3.4,3.4c-1.8,0-3.4-1.6-3.4-3.4v-18.4c0-1.1,0.4-1.8,1.1-2.5c1.6-1.1,5.1-2.7,10.5-2.7c7.4,0,11.2,3.8,11.2,10.7
	L385.3,326L385.3,326z M396.3,299.8c0,1.8-0.2,4-1.3,5.8c-0.7,1.1-1.8,2-3.1,2c-1.6,0-2.7-1.3-2.7-2.7c0-1.6,1.3-2.2,1.3-4.9v-2.9
	c0-1.6,1.3-2.9,2.9-2.9s2.9,1.3,2.9,2.9C396.3,297.1,396.3,299.8,396.3,299.8z M419.1,321.1c0,5.6-4.5,8.5-10.3,8.5
	c-4.7,0-7.6-1.3-9.4-2.9c-1.1-0.9-1.6-2.9-0.7-4c0.9-1.3,2.7-1.6,4.3-0.7c1.6,0.9,3.6,1.6,5.8,1.6c2.5,0,3.8-0.9,3.8-2.2
	c0-1.1-0.9-1.8-2.9-2.2c-1.8-0.4-1.8-0.4-3.6-0.9c-4-1.1-7.2-3.4-7.2-7.6c0-5.4,4.3-8.3,10.1-8.3c3.1,0,6.3,0.9,8.1,2.2
	c1.3,1.1,1.3,3.1,0.2,4.5c-0.9,1.1-2.7,1.1-4.3,0.4c-1.3-0.7-2.9-1.1-4.3-1.1c-2.5,0-3.6,0.9-3.6,2s0.7,1.8,2.9,2.2l3.6,0.9
	C416.7,314.6,419.1,317,419.1,321.1z M437,297.6c0-2,1.6-3.4,3.4-3.4c2,0,3.4,1.6,3.4,3.4v11h15.7v-11c0-2,1.6-3.4,3.4-3.4
	c2,0,3.4,1.6,3.4,3.4v28.2c0,2-1.3,3.6-3.4,3.6c-1.8,0-3.4-1.6-3.4-3.6V315h-15.7v10.7c0,2-1.3,3.4-3.4,3.4c-1.8,0-3.4-1.6-3.4-3.4
	V297.6z M484.5,329.6c-6.5,0-11.4-4-11.9-10.1c-0.2-2-0.2-5.1,0-6.9c0.4-5.8,5.4-10.1,11.9-10.1s11.2,4,11.9,10.1
	c0.2,2,0.2,4.9,0,6.9C495.9,325.3,491.2,329.6,484.5,329.6z M489.9,313.5c-0.2-2.9-2-4.7-5.1-4.7s-4.9,2-5.4,4.7c0,1.3,0,3.6,0,4.9
	c0.2,2.9,2.2,4.7,5.4,4.7s4.9-2,5.1-4.7C489.9,317.3,489.9,314.8,489.9,313.5z M522.1,321.1c0,5.6-4.5,8.5-10.3,8.5
	c-4.7,0-7.6-1.3-9.4-2.9c-1.1-0.9-1.6-2.9-0.7-4c0.9-1.3,2.7-1.6,4.3-0.7c1.6,0.9,3.6,1.6,5.8,1.6c2.5,0,3.8-0.9,3.8-2.2
	c0-1.1-0.9-1.8-2.9-2.2c-1.8-0.4-1.8-0.4-3.6-0.9c-4-1.1-7.2-3.4-7.2-7.6c0-5.4,4.3-8.3,10.1-8.3c3.1,0,6.3,0.9,8.1,2.2
	c1.3,1.1,1.3,3.1,0.2,4.5c-0.9,1.1-2.7,1.1-4.3,0.4c-1.3-0.7-2.9-1.1-4.3-1.1c-2.5,0-3.6,0.9-3.6,2s0.7,1.8,2.9,2.2l3.6,0.9
	C519.6,314.6,522.1,317,522.1,321.1z M539.5,329.6c-2.2,0-3.8-0.4-5.6-1.3v7.4c0,2-1.6,3.4-3.4,3.4c-1.8,0-3.4-1.6-3.4-3.4v-28.2
	c0-0.7,0.2-1.3,0.9-1.6c1.6-1.1,5.6-3.1,10.7-3.1c6.7,0,11,4.3,11.6,10.3c0.2,1.8,0.2,4.9,0,6.7C550.1,325.5,546,329.6,539.5,329.6z
	 M538.9,308.8c-1.8,0-4,0.9-4.9,1.6V322c0.9,0.4,2.9,1.3,4.9,1.3c3.4,0,4.7-1.8,4.9-4.7c0-1.1,0-3.4,0-4.7
	C543.6,310.5,542,308.8,538.9,308.8z M560.4,299.8c-2,0-3.6-1.6-3.6-3.6c0-2,1.6-3.6,3.6-3.6s3.6,1.6,3.6,3.6
	C563.9,298.2,562.4,299.8,560.4,299.8z M563.7,306.1V326c0,1.8-1.3,3.4-3.4,3.4c-1.8,0-3.4-1.6-3.4-3.4v-19.9c0-2,1.3-3.4,3.4-3.4
	C562.1,302.5,563.7,304.1,563.7,306.1z M579.6,329.6c-6,0-9-4.3-9-9.6v-19.5c0-2,1.3-3.4,3.4-3.4c1.8,0,3.4,1.6,3.4,3.4v3.4h6.3
	c1.6,0,3.1,1.3,3.1,2.9c0,1.6-1.3,2.9-3.1,2.9h-6.3v10.1c0,2.5,1.1,3.6,3.1,3.6c1.1,0,2.2-0.2,3.1-0.4c2.5-0.7,4,0.9,4,2.9
	c0,1.1-0.4,2.2-2,2.9C583.9,329.3,581.6,329.6,579.6,329.6z M612.7,324.4c0,1.1-0.2,1.8-1.1,2.2c-1.3,0.9-4.9,2.7-10.3,2.7
	c-7.2,0-10.3-4-10.3-8.7c0-4.3,2.9-8.1,10.1-8.1c2.2,0,3.6,0.2,5.4,0.7v-1.3c0-2.5-1.3-3.8-4.7-3.8c-1.8,0-3.6,0.4-4.7,0.9
	c-2.9,0.9-4.5-0.4-4.5-2.5c0-1.1,0.4-2.2,2.2-2.9c1.3-0.7,4.3-1.3,7.2-1.3c6.9,0,11,3.1,11,10.1v12.1H612.7z M606.5,322.6v-4.5
	c-1.6-0.4-3.1-0.9-4.9-0.9c-2.7,0-4.3,1.3-4.3,3.1c0,2.2,1.8,3.4,4.5,3.4C604.4,323.7,605.8,323.1,606.5,322.6z M626.2,297.3V326
	c0,1.8-1.3,3.4-3.4,3.4c-1.8,0-3.4-1.6-3.4-3.4v-28.6c0-2,1.3-3.4,3.4-3.4C624.6,293.8,626.2,295.3,626.2,297.3z M205.6,378.8
	c-6.5,0-11.4-4-11.9-10.1c0-2,0-4.9,0-6.9c0.4-5.8,5.4-10.1,11.9-10.1s11.2,4,11.9,10.1c0.2,2,0.2,4.9,0,6.9
	C216.8,374.5,212.1,378.8,205.6,378.8z M210.8,362.7c-0.2-2.9-2-4.7-5.1-4.7s-4.9,2-5.4,4.7c0,1.3,0,3.6,0,4.9
	c0.2,2.9,2.2,4.7,5.4,4.7s4.9-2,5.1-4.7C211,366.5,211,364,210.8,362.7z M225.6,351.7c0-6,3.4-9.2,8.7-9.2c1.8,0,3.8,0.2,4.9,0.7
	c1.6,0.4,2.5,1.6,2.5,3.1s-1.1,2.9-3.1,2.9c-1.1,0-2.2-0.4-3.8-0.4c-1.8,0-2.9,1.1-2.9,3.1v1.1h5.8c1.6,0,2.9,1.1,2.9,2.9
	c0,1.6-1.3,2.9-2.9,2.9h-5.8v16.3c0,2-1.3,3.6-3.4,3.6c-1.8,0-3.4-1.6-3.4-3.6v-16.3H224c-1.8,0-3.1-1.3-3.1-2.9
	c0-1.8,1.3-2.9,3.1-2.9h1.1v-1.3C225.1,351.7,225.6,351.7,225.6,351.7z M266.7,367.2v8.1c0,1.8-1.6,3.6-3.4,3.6s-3.4-1.6-3.4-3.6
	v-27.3c0-2.5,1.6-4.5,4.5-4.5h9.8c6.5,0,12.1,4.3,12.1,11.6s-5.4,11.6-12.5,11.6h-7.2V367.2z M273.7,360.5c4,0,5.8-2,5.8-5.1
	c0-3.4-1.8-5.1-5.8-5.1h-7.2v10.3C266.5,360.5,273.7,360.5,273.7,360.5z M298.1,353.5c1.1-0.9,3.6-2,6.3-2c6.3,0,9.8,3.8,9.8,10.7
	V375c0,2-1.3,3.6-3.4,3.6c-1.8,0-3.4-1.6-3.4-3.6v-12.3c0-2.9-1.8-4.7-4.5-4.7c-2,0-4,0.9-5.1,2v15c0,1.8-1.3,3.4-3.4,3.4
	c-1.8,0-3.4-1.6-3.4-3.4v-28.6c0-2,1.3-3.4,3.4-3.4c1.8,0,3.4,1.6,3.4,3.4L298.1,353.5L298.1,353.5z M324.5,349
	c-2,0-3.6-1.6-3.6-3.6c0-2,1.6-3.6,3.6-3.6c2,0,3.6,1.6,3.6,3.6C328.1,347.5,326.5,349,324.5,349z M327.8,355.3v19.9
	c0,1.8-1.3,3.4-3.4,3.4c-1.8,0-3.4-1.6-3.4-3.4v-19.9c0-2,1.3-3.4,3.4-3.4C326.3,351.9,327.8,353.3,327.8,355.3z M341.7,346.6v28.6
	c0,1.8-1.3,3.4-3.4,3.4c-1.8,0-3.4-1.6-3.4-3.4v-28.6c0-2,1.3-3.4,3.4-3.4C340.4,343,341.7,344.6,341.7,346.6z M369.7,373.7
	c0,1.1-0.2,1.8-1.1,2.2c-1.3,0.9-4.9,2.7-10.3,2.7c-7.2,0-10.3-4-10.3-8.7c0-4.3,2.9-8.1,10.1-8.1c2.2,0,3.6,0.2,5.4,0.7v-1.3
	c0-2.5-1.3-3.8-4.7-3.8c-1.8,0-3.6,0.4-4.7,0.9c-2.9,0.9-4.5-0.4-4.5-2.5c0-1.1,0.4-2.2,2.2-2.9c1.3-0.7,4.3-1.3,7.2-1.3
	c6.9,0,11,3.1,11,10.1L369.7,373.7L369.7,373.7z M363.2,371.9v-4.5c-1.6-0.4-3.1-0.9-4.9-0.9c-2.7,0-4.3,1.3-4.3,3.1
	c0,2.2,1.8,3.4,4.5,3.4C361.2,373.2,362.7,372.3,363.2,371.9z M386.5,351.7c2,0,4.3,0.7,5.8,1.3v-6.5c0-2,1.6-3.4,3.4-3.4
	c1.8,0,3.4,1.6,3.4,3.4v26.9c0,1.1-0.2,1.8-1.1,2.2c-1.3,0.9-5.4,3.1-10.3,3.1c-6.9,0-11.2-4.3-11.6-10.3c-0.2-1.8-0.2-4.9,0-6.7
	C376.2,355.5,380,351.7,386.5,351.7z M387.4,372.5c1.8,0,4-0.9,4.7-1.6v-11.6c-0.9-0.4-2.9-1.3-5.1-1.3c-3.1,0-4.7,1.8-4.9,4.7
	c0,1.1,0,3.4,0,4.7C382.4,370.7,384.2,372.5,387.4,372.5z M428.3,364.3c0,2-0.9,3.4-3.4,3.4h-13.2v0.4c0,3.1,2.5,4.7,5.6,4.7
	c1.8,0,3.6-0.4,5.4-1.1c2.7-0.9,4.3,0.9,4.3,2.7c0,0.9-0.4,2-1.6,2.7c-1.8,1.1-4.9,1.8-8.1,1.8c-6.7,0-11.4-4.3-11.9-10.5
	c-0.2-2,0-4.7,0-6.3c0.7-6.5,5.1-10.5,11.6-10.5c6.7,0,11.2,4.5,11.2,11.4V364.3z M421.4,362.9c0.4,0,0.4-0.2,0.4-0.7
	c0.2-2.9-1.8-4.9-4.9-4.9c-3.6,0-5.1,2.2-5.1,5.6H421.4z M440.8,346.6v28.6c0,1.8-1.3,3.4-3.4,3.4c-1.8,0-3.4-1.6-3.4-3.4v-28.6
	c0-2,1.3-3.4,3.4-3.4C439.3,343,440.8,344.6,440.8,346.6z M459.9,378.8c-2.2,0-3.8-0.4-5.6-1.3v7.4c0,2-1.6,3.4-3.4,3.4
	c-1.8,0-3.4-1.6-3.4-3.4v-28.2c0-0.7,0.2-1.3,0.9-1.6c1.6-1.1,5.6-3.1,10.7-3.1c6.7,0,11,4.3,11.6,10.3c0.2,1.8,0.2,4.9,0,6.7
	C470.4,374.8,466.6,378.8,459.9,378.8z M459.2,358c-1.8,0-4,0.9-4.9,1.6v11.6c0.9,0.4,2.9,1.3,4.9,1.3c3.4,0,4.7-1.8,4.9-4.7
	c0-1.1,0-3.4,0-4.7C464.1,359.8,462.3,358,459.2,358z M483.8,353.5c1.1-0.9,3.6-2,6.3-2c6.3,0,9.8,3.8,9.8,10.7V375
	c0,2-1.3,3.6-3.4,3.6c-1.8,0-3.4-1.6-3.4-3.6v-12.3c0-2.9-1.8-4.7-4.5-4.7c-2,0-4,0.9-5.1,2v15c0,1.8-1.3,3.4-3.4,3.4
	c-1.8,0-3.4-1.6-3.4-3.4v-28.6c0-2,1.3-3.4,3.4-3.4c1.8,0,3.4,1.6,3.4,3.4v7.2H483.8z M510.4,349c-2,0-3.6-1.6-3.6-3.6
	c0-2,1.6-3.6,3.6-3.6c2,0,3.6,1.6,3.6,3.6C513.8,347.5,512.2,349,510.4,349z M513.6,355.3v19.9c0,1.8-1.3,3.4-3.4,3.4
	c-1.8,0-3.4-1.6-3.4-3.4v-19.9c0-2,1.3-3.4,3.4-3.4C512.2,351.9,513.6,353.3,513.6,355.3z M541.8,373.7c0,1.1-0.2,1.8-1.1,2.2
	c-1.3,0.9-4.9,2.7-10.3,2.7c-7.2,0-10.3-4-10.3-8.7c0-4.3,2.9-8.1,10.1-8.1c2.2,0,3.6,0.2,5.4,0.7v-1.3c0-2.5-1.3-3.8-4.7-3.8
	c-1.8,0-3.6,0.4-4.7,0.9c-2.9,0.9-4.5-0.4-4.5-2.5c0-1.1,0.4-2.2,2.2-2.9c1.3-0.7,4.3-1.3,7.2-1.3c6.9,0,11,3.1,11,10.1v12.1H541.8z
	 M535.3,371.9v-4.5c-1.6-0.4-3.1-0.9-4.9-0.9c-2.7,0-4.3,1.3-4.3,3.1c0,2.2,1.8,3.4,4.5,3.4C533.3,373.2,534.8,372.3,535.3,371.9z"
	/>
<path class="st1" d="M549.2,360.7c-2.5,0-4.3-1.8-4.3-3.8c0-0.4,0-0.9,0-1.3c0-2.2,2-3.8,4.3-3.8s4.3,1.6,4.3,3.8c0,0.4,0,0.9,0,1.3
	C553.4,359.1,551.4,360.7,549.2,360.7z M552.5,355.5c-0.2-1.8-1.6-3.1-3.4-3.1s-3.1,1.1-3.4,3.1c0,0.4,0,0.9,0,1.3
	c0.2,1.8,1.6,3.1,3.4,3.1s3.1-1.1,3.4-3.1C552.5,356.4,552.5,356,552.5,355.5z M549.2,356.9c0-0.2-0.2-0.2-0.2-0.2h-0.7v1.3
	c0,0.2-0.2,0.4-0.4,0.4c-0.2,0-0.4-0.2-0.4-0.4v-3.8c0-0.2,0.2-0.4,0.7-0.4h1.6c0.9,0,1.8,0.4,1.8,1.3c0,0.7-0.4,1.1-1.1,1.3
	l1.1,1.3l0.2,0.2c0,0.2-0.2,0.4-0.4,0.4c-0.2,0-0.2,0-0.2-0.2L549.2,356.9z M549.4,356c0.7,0,0.9-0.2,0.9-0.7c0-0.4-0.2-0.7-0.9-0.7
	h-1.1v1.3H549.4z"/>
</svg>
