<svg fill="none" height="52" viewBox="0 0 200 52" width="200" xmlns="http://www.w3.org/2000/svg" xmlns:xlink="http://www.w3.org/1999/xlink"><clipPath id="a"><path d="m0 0h200v51.2397h-200z"/></clipPath><g clip-path="url(#a)"><g fill="#542ded"><path d="m20.3634 38.4298c-.8453 0-1.6716.2504-2.3743.7197-.7028.4691-1.2505 1.136-1.5739 1.9162-.3235.7803-.4081 1.6388-.2433 2.4671.1649.8283.572 1.5892 1.1697 2.1864.5975.597 1.3591 1.0038 2.188 1.1685.829.1647 1.6882.0802 2.4691-.243s1.4484-.8705 1.918-1.5727c.4695-.7021.7201-1.5277.7201-2.3723 0-1.1324-.4502-2.2185-1.2516-3.0193-.8015-.8007-1.8885-1.2506-3.0218-1.2506z" opacity=".64"/><path d="m37.4805 38.4298c-.8452 0-1.6715.2504-2.3742.7197-.7028.4691-1.2505 1.136-1.574 1.9162-.3234.7803-.408 1.6388-.2432 2.4671.1649.8283.572 1.5892 1.1695 2.1864.5977.597 1.3593 1.0038 2.1882 1.1685.829.1647 1.6882.0802 2.4691-.243s1.4484-.8705 1.9179-1.5727c.4696-.7021.7202-1.5277.7202-2.3723 0-1.1324-.4503-2.2185-1.2517-3.0193-.8014-.8007-1.8884-1.2506-3.0218-1.2506z" opacity=".64"/><path d="m41.6658 8.53967h-27.906c-.2638.00914-.5151.11561-.7051.29891l4.2736 18.61712c0 .1494 0 .2775.1495.4269.4982.6045 1.1248 1.0907 1.8345 1.4231.7096.3323 1.4844.5027 2.268.4984h15.8975c2.5225-.0278 4.9336-1.0428 6.7153-2.8272 1.782-1.7843 2.7924-4.1957 2.8147-6.7162v-6.4049c-.0057-1.4119-.5711-2.764-1.5722-3.7604-1.0012-.99633-2.3567-1.55573-3.7698-1.55573z"/><path d="m38.7607 35.8464h-14.53c-2.254.0095-4.4435-.7521-6.2044-2.158-1.7609-1.406-2.9872-3.3718-3.4751-5.5706l-4.2735-18.85197c-.1432-.63318-.49458-1.20016-.99811-1.61039-.50351-.41022-1.13009-.64002-1.77965-.6527h-1.85898c-.36269 0-.71052-.14396-.96698-.4002-.25647-.25625-.40054-.60379-.40054-.96618 0-.3624.14407-.70994.40054-.96619.25646-.25625.60429-.40021.96698-.40021h1.85898c1.28339-.0061 2.53016.42692 3.53316 1.22705 1.0029.80012 1.7015 1.91916 1.9796 3.17102l4.2736 18.85197c.3554 1.5907 1.244 3.0125 2.5186 4.0297s2.8587 1.5691 4.4899 1.564h14.53c.3626 0 .7105.1438.9669.4001.2565.2562.4005.6038.4005.9662s-.144.7099-.4005.9662c-.2564.2562-.6043.4002-.9669.4002z" opacity=".8"/><path d="m73.8723 23.3141c-1.7436 0-3.1368-.538-4.1795-1.6141-1.0427-1.093-1.6154-2.579-1.7179-4.4578l-.0257-.8711.0257-.8454c.1025-1.8447.6752-3.3136 1.7179-4.4067s2.4359-1.63963 4.1795-1.63963c1.8804 0 3.3333.59783 4.359 1.79343 1.0427 1.1955 1.5641 2.8181 1.5641 4.8677v.4612c0 .1707-.0599.316-.1795.4355-.1026.1025-.2394.1537-.4103.1537h-8.8974v.2306c.0513 1.1103.3932 2.0582 1.0256 2.8438.6325.7857 1.4702 1.1785 2.5129 1.1785.8034 0 1.4529-.1537 1.9487-.4611.5128-.3245.8974-.6576 1.1538-.9992.1539-.205.2735-.3245.359-.3587.0855-.0512.2308-.0768.4359-.0768h1.1282c.1538 0 .282.0426.3846.1281.1196.0854.1795.1963.1795.333 0 .3757-.2308.8284-.6923 1.3579-.4615.5294-1.1196.9906-1.9744 1.3834-.8375.3758-1.8034.5637-2.8974.5637zm3.5897-7.8653v-.0769c0-1.1955-.3247-2.1691-.9743-2.9206s-1.5214-1.1273-2.6154-1.1273c-1.1112 0-1.9829.3758-2.6154 1.1273-.6324.7515-.9487 1.7251-.9487 2.9206v.0769zm9.7589 7.8653c-1.8291 0-3.2564-.5124-4.2821-1.5372-1.0256-1.0418-1.5641-2.4937-1.6153-4.3554l-.0257-1.0248.0257-1.0248c.0512-1.8616.5897-3.3049 1.6153-4.3297 1.0257-1.0419 2.453-1.56283 4.2821-1.56283 1.2308 0 2.2649.22203 3.1026.66613.8546.427 1.4871.965 1.8974 1.614.4273.6491.6581 1.2981.6923 1.9471.0171.1538-.0428.2904-.1795.41-.1197.1195-.2564.1793-.4102.1793h-1.1283c-.171 0-.2992-.0342-.3846-.1025-.0855-.0854-.171-.2306-.2564-.4355-.3077-.8369-.7351-1.4262-1.282-1.7678-.53-.3587-1.2052-.538-2.0257-.538-1.0769 0-1.9316.3331-2.5641.9992s-.9743 1.6823-1.0256 3.0487l-.0257.8967.0257.8967c.0513 1.3665.3931 2.3827 1.0256 3.0488s1.4872.9992 2.5641.9992c.8376 0 1.5213-.1708 2.0513-.5124.5299-.3587.9487-.9566 1.2564-1.7934.0854-.205.1709-.3417.2564-.4099.0854-.0855.2136-.1281.3846-.1281h1.1283c.1538 0 .2905.0598.4102.1793.1367.1195.1966.2562.1795.4099-.0342.6319-.265 1.2724-.6923 1.9215-.4103.6491-1.0428 1.1955-1.8974 1.6397-.8377.4441-1.8718.6661-3.1026.6661zm13.1491 0c-1.8806 0-3.3336-.5295-4.3592-1.5884-1.0086-1.059-1.5471-2.4681-1.6154-4.2273l-.0257-1.1017.0257-1.1016c.0683-1.7592.6154-3.1683 1.641-4.2273 1.0427-1.059 2.4872-1.58843 4.3336-1.58843 1.846 0 3.282.52943 4.307 1.58843 1.043 1.059 1.599 2.4681 1.667 4.2273.034.3757.051.7429.051 1.1016s-.017.726-.051 1.1017c-.068 1.7592-.615 3.1683-1.641 4.2273-1.009 1.0589-2.453 1.5884-4.333 1.5884zm0-1.9215c1.094 0 1.957-.3416 2.589-1.0248.65-.7003 1-1.6995 1.052-2.9975.017-.1708.025-.4954.025-.9736s-.008-.8028-.025-.9735c-.052-1.2981-.402-2.2888-1.052-2.9719-.632-.7003-1.495-1.0504-2.589-1.0504-1.0944 0-1.9662.3501-2.6156 1.0504-.6326.6831-.9744 1.6738-1.0257 2.9719l-.0256.9735.0256.9736c.0513 1.298.3931 2.2972 1.0257 2.9975.6494.6832 1.5212 1.0248 2.6156 1.0248zm8.827 1.6653c-.171 0-.316-.0513-.436-.1537-.102-.1196-.154-.2648-.154-.4356v-12.1438c0-.1708.052-.3074.154-.40989.12-.11956.265-.17934.436-.17934h1.077c.171 0 .308.05978.41.17934.103.10249.154.23909.154.40989v.8711c.923-1.1443 2.171-1.71653 3.744-1.71653 1.88 0 3.213.78563 4 2.35703.41-.7174.991-1.2895 1.743-1.7165.769-.42703 1.624-.64053 2.564-.64053 1.402 0 2.547.47823 3.436 1.43473s1.334 2.34 1.334 4.1504v7.4041c0 .1708-.06.316-.18.4356-.102.1024-.239.1537-.41.1537h-1.103c-.171 0-.316-.0513-.436-.1537-.102-.1196-.153-.2648-.153-.4356v-7.1735c0-1.3665-.283-2.34-.847-2.9207-.564-.5978-1.307-.8967-2.23-.8967-.821 0-1.53.3075-2.129.9223-.581.5979-.871 1.5628-.871 2.8951v7.1735c0 .1708-.06.316-.18.4356-.102.1024-.239.1537-.41.1537h-1.128c-.171 0-.317-.0513-.436-.1537-.103-.1196-.154-.2648-.154-.4356v-7.1735c0-1.3493-.299-2.3228-.898-2.9207-.581-.5978-1.307-.8967-2.179-.8967-.821 0-1.53.2989-2.128.8967-.581.5979-.872 1.5628-.872 2.8951v7.1991c0 .1708-.06.316-.179.4356-.103.1024-.24.1537-.411.1537zm21.736 0c-.171 0-.316-.0513-.436-.1537-.103-.1196-.154-.2648-.154-.4356v-12.1438c0-.1708.051-.3074.154-.40989.12-.11956.265-.17934.436-.17934h1.076c.172 0 .308.05978.411.17934.102.10249.154.23909.154.40989v.8711c.923-1.1443 2.171-1.71653 3.743-1.71653 1.881 0 3.214.78563 4 2.35703.41-.7174.992-1.2895 1.744-1.7165.769-.42703 1.624-.64053 2.564-.64053 1.402 0 2.547.47823 3.436 1.43473.89.9565 1.333 2.34 1.333 4.1504v7.4041c0 .1708-.059.316-.179.4356-.103.1024-.239.1537-.411.1537h-1.102c-.171 0-.316-.0513-.436-.1537-.103-.1196-.154-.2648-.154-.4356v-7.1735c0-1.3665-.282-2.34-.846-2.9207-.564-.5978-1.308-.8967-2.231-.8967-.82 0-1.529.3075-2.128.9223-.581.5979-.872 1.5628-.872 2.8951v7.1735c0 .1708-.059.316-.179.4356-.103.1024-.239.1537-.411.1537h-1.128c-.17 0-.315-.0513-.436-.1537-.102-.1196-.154-.2648-.154-.4356v-7.1735c0-1.3493-.298-2.3228-.897-2.9207-.581-.5978-1.308-.8967-2.179-.8967-.821 0-1.53.2989-2.129.8967-.58.5979-.871 1.5628-.871 2.8951v7.1991c0 .1708-.059.316-.18.4356-.103.1024-.238.1537-.41.1537zm26.428.2562c-1.744 0-3.137-.538-4.18-1.6141-1.042-1.093-1.615-2.579-1.718-4.4578l-.025-.8711.025-.8454c.103-1.8447.676-3.3136 1.718-4.4067 1.043-1.0931 2.436-1.63963 4.18-1.63963 1.881 0 3.333.59783 4.359 1.79343 1.042 1.1955 1.564 2.8181 1.564 4.8677v.4612c0 .1707-.06.316-.18.4355-.102.1025-.239.1537-.41.1537h-8.897v.2306c.051 1.1103.393 2.0582 1.025 2.8438.632.7857 1.471 1.1785 2.513 1.1785.804 0 1.453-.1537 1.949-.4611.513-.3245.897-.6576 1.154-.9992.154-.205.273-.3245.359-.3587.086-.0512.23-.0768.436-.0768h1.128c.154 0 .282.0426.384.1281.12.0854.18.1963.18.333 0 .3757-.231.8284-.692 1.3579-.462.5294-1.12.9906-1.975 1.3834-.837.3758-1.804.5637-2.897.5637zm3.59-7.8653v-.0769c0-1.1955-.325-2.1691-.975-2.9206s-1.522-1.1273-2.615-1.1273c-1.112 0-1.984.3758-2.616 1.1273s-.948 1.7251-.948 2.9206v.0769zm5.015 7.6091c-.171 0-.317-.0513-.436-.1537-.103-.1196-.154-.2648-.154-.4356v-12.1182c0-.1708.051-.3159.154-.43549.119-.11956.265-.17934.436-.17934h1.077c.188 0 .333.05978.436.17934.119.10249.179.24769.179.43549v1.1273c.701-1.1614 1.889-1.74213 3.564-1.74213h1c.189 0 .334.05124.436.15372.103.10248.154.24761.154.43551v.948c0 .1708-.051.3159-.154.4355-.102.1025-.247.1537-.436.1537h-1.461c-.94 0-1.684.2733-2.231.8198-.529.5466-.795 1.2896-.795 2.229v7.5578c0 .1708-.06.316-.179.4356-.12.1024-.266.1537-.436.1537zm13.108.2562c-1.829 0-3.257-.5124-4.282-1.5372-1.026-1.0418-1.565-2.4937-1.616-4.3554l-.025-1.0248.025-1.0248c.051-1.8616.59-3.3049 1.616-4.3297 1.025-1.0419 2.453-1.56283 4.282-1.56283 1.23 0 2.265.22203 3.102.66613.855.427 1.487.965 1.898 1.614.428.6491.659 1.2981.692 1.9471.018.1538-.042.2904-.18.41-.119.1195-.256.1793-.41.1793h-1.128c-.171 0-.299-.0342-.385-.1025-.084-.0854-.17-.2306-.256-.4355-.308-.8369-.735-1.4262-1.282-1.7678-.53-.3587-1.205-.538-2.026-.538-1.077 0-1.931.3331-2.564.9992-.632.6661-.974 1.6823-1.025 3.0487l-.026.8967.026.8967c.051 1.3665.393 2.3827 1.025 3.0488.633.6661 1.487.9992 2.564.9992.839 0 1.522-.1708 2.052-.5124.53-.3587.948-.9566 1.256-1.7934.086-.205.172-.3417.256-.4099.086-.0855.214-.1281.385-.1281h1.128c.154 0 .291.0598.41.1793.138.1195.198.2562.18.4099-.033.6319-.264 1.2724-.692 1.9215-.411.6491-1.043 1.1955-1.898 1.6397-.837.4441-1.872.6661-3.102.6661zm13.02 0c-1.743 0-3.136-.538-4.179-1.6141-1.043-1.093-1.616-2.579-1.718-4.4578l-.026-.8711.026-.8454c.102-1.8447.675-3.3136 1.718-4.4067s2.436-1.63963 4.179-1.63963c1.881 0 3.333.59783 4.359 1.79343 1.044 1.1955 1.564 2.8181 1.564 4.8677v.4612c0 .1707-.059.316-.179.4355-.103.1025-.239.1537-.411.1537h-8.897v.2306c.051 1.1103.394 2.0582 1.026 2.8438.633.7857 1.47 1.1785 2.512 1.1785.804 0 1.454-.1537 1.949-.4611.513-.3245.898-.6576 1.154-.9992.154-.205.274-.3245.359-.3587.086-.0512.231-.0768.436-.0768h1.128c.154 0 .282.0426.385.1281.12.0854.179.1963.179.333 0 .3757-.231.8284-.692 1.3579-.462.5294-1.119.9906-1.974 1.3834-.838.3758-1.803.5637-2.898.5637zm3.59-7.8653v-.0769c0-1.1955-.324-2.1691-.974-2.9206-.649-.7515-1.521-1.1273-2.616-1.1273-1.11 0-1.982.3758-2.615 1.1273-.632.7515-.949 1.7251-.949 2.9206v.0769z"/><path clip-rule="evenodd" d="m121.792 28.1819h-46.4741l-8.6538 11.5289 8.6538 11.5289h41.3461zm2.564 0-5.128 23.0578h8.013l8.654-11.5289-8.654-11.5289z" fill-rule="evenodd"/></g><path d="m76.8067 44.8347c-.1025 0-.1897-.0359-.2615-.1076-.0718-.0718-.1077-.1589-.1077-.2614v-10.0071c0-.1127.0308-.2049.0923-.2767.0718-.0717.1641-.1076.2769-.1076h1.4154c.1128 0 .2051.0359.2769.1076.0718.0718.1077.164.1077.2767v3.9506h4.4923v-3.9506c0-.1127.0359-.2049.1077-.2767.0718-.0717.159-.1076.2616-.1076h1.4307c.1129 0 .2.0359.2616.1076.0718.0718.1077.164.1077.2767v10.0071c0 .1025-.0359.1896-.1077.2614-.0616.0717-.1487.1076-.2616.1076h-1.4307c-.1026 0-.1898-.0359-.2616-.1076-.0718-.0718-.1077-.1589-.1077-.2614v-4.1043h-4.4923v4.1043c0 .1025-.0359.1896-.1077.2614-.0718.0717-.1641.1076-.2769.1076zm12.9918 0c-.1025 0-.1897-.0359-.2615-.1076-.0718-.0718-.1077-.1589-.1077-.2614v-8.4699h-2.8462c-.1025 0-.1897-.0358-.2615-.1076-.0718-.0717-.1077-.1639-.1077-.2767v-1.1529c0-.1127.0308-.2049.0923-.2767.0718-.0717.1641-.1076.2769-.1076h7.8616c.1128 0 .2051.0359.2769.1076.0718.0718.1077.164.1077.2767v1.1529c0 .1128-.0359.205-.1077.2767-.0718.0718-.1641.1076-.2769.1076h-2.8308v8.4699c0 .1025-.0359.1896-.1077.2614-.0615.0717-.1487.1076-.2615.1076zm6.3454 0c-.1025 0-.1897-.0359-.2615-.1076-.0718-.0718-.1077-.1589-.1077-.2614v-10.0071c0-.1127.0307-.2049.0923-.2767.0718-.0717.1641-.1076.2769-.1076h1.2462c.1948 0 .3487.0974.4615.2921l2.9694 5.5031 2.969-5.5031c.113-.1947.267-.2921.462-.2921h1.23c.113 0 .206.0359.277.1076.072.0718.108.164.108.2767v10.0071c0 .1128-.036.205-.108.2767-.071.0615-.164.0923-.277.0923h-1.323c-.102 0-.189-.0359-.261-.1076-.072-.0718-.108-.1589-.108-.2614v-6.6099l-2.138 4.0582c-.113.2255-.282.3382-.508.3382h-.646c-.216 0-.39-.1127-.5233-.3382l-2.1385-4.0582v6.6099c0 .1025-.0359.1896-.1077.2614-.0615.0717-.1487.1076-.2615.1076zm11.8691 0c-.102 0-.189-.0359-.261-.1076-.072-.0718-.108-.1589-.108-.2614v-10.0224c0-.1128.036-.1999.108-.2614.072-.0717.159-.1076.261-.1076h1.447c.112 0 .2.0359.261.1076.072.0615.108.1486.108.2614v8.5467h4.877c.113 0 .205.0359.277.1076.071.0718.107.1589.107.2614v1.1067c0 .1025-.036.1896-.107.2614-.072.0717-.164.1076-.277.1076z" fill="#fff"/></g></svg>